<svg xmlns="http://www.w3.org/2000/svg" xmlns:xlink="http://www.w3.org/1999/xlink" fill="none" version="1.1" width="38.49064636230469" height="38.42879104614258" viewBox="0 0 38.49064636230469 38.42879104614258"><defs><clipPath id="master_svg0_721_23333"><rect x="0" y="0" width="38.49064636230469" height="38.42879104614258" rx="12"/></clipPath></defs><g clip-path="url(#master_svg0_721_23333)"><rect x="0" y="0" width="38.49064636230469" height="38.42879104614258" rx="12" fill="#8444FF" fill-opacity="1"/><g><path d="M29.5569,18.2693L20.2598,18.272199999999998L20.2598,8.937525C20.2598,8.420004,19.8398,8,19.322200000000002,8C18.8047,8,18.3848,8.420004,18.3848,8.937525L18.3848,18.265700000000002L8.940362,18.2605C8.939404,18.2605,8.938497,18.2605,8.93754,18.2605C8.420976,18.2605,8.00192947,18.677599999999998,8.0000143051,19.1952C7.99719219,19.712699999999998,8.416289,20.1336,8.93376,20.1355L18.384700000000002,20.140700000000002L18.384700000000002,29.4913C18.384700000000002,30.0097,18.8047,30.4288,19.322200000000002,30.4288C19.8397,30.4288,20.259700000000002,30.0097,20.259700000000002,29.4913L20.259700000000002,20.147199999999998L29.5494,20.1443C29.5513,20.1443,29.5522,20.1443,29.5531,20.1443C30.0697,20.1443,30.4887,19.7271,30.4906,19.209600000000002C30.4926,18.6921,30.0735,18.2711,29.5569,18.2693Z" fill="#FFFFFF" fill-opacity="1"/></g></g></svg>