<svg xmlns="http://www.w3.org/2000/svg" xmlns:xlink="http://www.w3.org/1999/xlink" fill="none" version="1.1" width="17.210145950317383" height="17.232141494750977" viewBox="0 0 17.210145950317383 17.232141494750977"><defs><clipPath id="master_svg0_132_03504"><rect x="0" y="0" width="17.210145950317383" height="17.232141494750977" rx="0"/></clipPath></defs><g clip-path="url(#master_svg0_132_03504)"><g><path d="M6.9216215625,12.67517C9.0301615625,13.54402,11.4428615625,12.536200000000001,12.3095815625,10.42454C13.1762915625,8.31287,12.1685815625,5.89758,10.0591915625,5.030789C7.9506415624999995,4.161935,5.5379415625,5.169756,4.6712265625,7.28142C3.8045115625,9.39309,4.8122235625,11.80838,6.9216215625,12.67517Z" fill="#E9EAEB" fill-opacity="1"/></g><g><path d="M9.78722453125,8.025602421875L9.71647453125,8.025602421875L3.11311353125,6.136522421875C3.01877963125,6.112902421875,2.97161263125,6.042062421875,2.94802933125,5.947612421875C2.92444603125,5.853152421875,2.97161263125,5.758702421875,3.0423625312500002,5.7114724218749995L7.28738453125,2.641709521875C7.35813453125,2.594482421875,7.42888453125,2.594482421875,7.49963453125,2.594482421875L14.10299453125,4.4835724218749995C14.19729453125,4.507182421875,14.24449453125,4.578022421875,14.26809453125,4.672472421875C14.29169453125,4.7669324218749995,14.24449453125,4.861382421875,14.17369453125,4.9086124218750005L9.928724531250001,7.978372421875C9.88155453125,8.001992421875,9.83439453125,8.025602421875,9.78722453125,8.025602421875ZM3.7262815312499997,5.805932421875L9.76363453125,7.529722421875L13.51339453125,4.814162421875L7.47604453125,3.090367421875L3.7262815312499997,5.805932421875ZM4.91700453125,10.956042421875L5.62404453125,10.444342421875L5.90043453125,10.826882421875L5.19340453125,11.338822421875L4.91700453125,10.956042421875ZM6.3912045312500005,10.481412421875L6.10820453125,10.103602421875L7.28737453125,9.253512421875C7.33454453125,9.206282421874999,7.42887453125,9.206282421874999,7.49962453125,9.206282421874999L8.91463453125,9.607712421875L8.79671453125,10.056372421875L7.49962453125,9.678552421875L6.3912045312500005,10.481412421875ZM9.250704531250001,10.208682421875L9.38040453125,9.754592421875L10.55934453125,10.092022421875L10.429634531249999,10.546112421875L9.250704531250001,10.208682421875ZM10.90719453125,10.684492421875L11.03667453125,10.230402421874999L11.98897453125,10.502902421875L11.85926453125,10.956992421875L10.90719453125,10.684492421875Z" fill="#2A5082" fill-opacity="1"/></g><g><path d="M9.78722453125,14.637418515625L9.71647453125,14.637418515625L3.11311353125,12.748338515625C3.01877963125,12.724718515625,2.97161263125,12.653878515625,2.94802933125,12.559428515625001C2.92444603125,12.464978515624999,2.97161263125,12.370518515625,3.0423625312500002,12.323288515625L4.4573645312500005,11.307908515625L4.74037453125,11.685728515625L3.72628253125,12.417748515625L9.76363453125,14.141538515625001L13.51339453125,11.425976515625L12.33423453125,11.095386515625L12.45214453125,10.646728515625L14.10299453125,11.118999515625C14.19729453125,11.142613515625,14.24449453125,11.213454515625,14.26809453125,11.307908515625C14.29169453125,11.402362515625,14.24449453125,11.496816515625,14.17369453125,11.544044515625L9.928724531250001,14.613808515625C9.88155453125,14.613808515625,9.834384531249999,14.637418515625,9.78722453125,14.637418515625Z" fill="#2A5082" fill-opacity="1"/></g><g><path d="M2.9482421875,5.9005705468750005L3.4199111875,5.9005705468750005L3.4199111875,12.512370546875L2.9482421875,12.512370546875L2.9482421875,5.9005705468750005ZM9.5516021875,7.789660546875L10.0232721875,7.789660546875L10.0232721875,14.401410546875L9.5516021875,14.401410546875L9.5516021875,7.789660546875ZM7.1932621875,8.025800546875L7.6649321875,8.025800546875L7.6649321875,9.442610546874999L7.1932621875,9.442610546874999L7.1932621875,8.025800546875ZM7.1932621875,6.372850546875L7.6649321875,6.372850546875L7.6649321875,7.553520546875L7.1932621875,7.553520546875L7.1932621875,6.372850546875ZM7.1932621875,4.9560305468750006L7.6649321875,4.9560305468750006L7.6649321875,5.9005705468750005L7.1932621875,5.9005705468750005L7.1932621875,4.9560305468750006ZM7.1932621875,2.830810546875L7.6649321875,2.830810546875L7.6649321875,4.483760546875L7.1932621875,4.483760546875L7.1932621875,2.830810546875ZM13.7966421875,4.7199005468749995L14.2682421875,4.7199005468749995L14.2682421875,11.331700546875L13.7966421875,11.331700546875L13.7966421875,4.7199005468749995Z" fill="#2A5082" fill-opacity="1"/></g><g><path d="M10.495088125,14.40127809375C10.495088125,14.80271109375,10.188498125,15.10968109375,9.787581124999999,15.10968109375C9.386662125,15.10968109375,9.080078125,14.80271109375,9.080078125,14.40127809375C9.080078125,13.99984709375,9.386663125,13.69287109375,9.787581124999999,13.69287109375C10.188498125,13.69287109375,10.495088125,13.99984709375,10.495088125,14.40127809375Z" fill="#A3D4FF" fill-opacity="1"/></g><g><path d="M9.787087,15.34612125C9.268252,15.34612125,8.84375,14.92107125,8.84375,14.40157425C8.84375,13.88207525,9.268252,13.45703125,9.787087,13.45703125C10.30592,13.45703125,10.73042,13.88207525,10.73042,14.40157425C10.73042,14.92107125,10.30592,15.34612125,9.787087,15.34612125ZM9.787087,13.92930225C9.527669,13.92930225,9.315419,14.141824249999999,9.315419,14.40157425C9.315419,14.66132125,9.527669,14.87384125,9.787087,14.87384125C10.0465,14.87384125,10.25876,14.66132125,10.25876,14.40157425C10.25876,14.141824249999999,10.0465,13.92930225,9.787087,13.92930225Z" fill="#2A5082" fill-opacity="1"/></g><g><path d="M14.73971703125,11.331698015625C14.73971703125,11.733131015625,14.43312703125,12.040101015625,14.032210031249999,12.040101015625C13.63129103125,12.040101015625,13.32470703125,11.733131015625,13.32470703125,11.331698015625C13.32470703125,10.930267015625,13.63129203125,10.623291015625,14.032210031249999,10.623291015625C14.43312703125,10.623291015625,14.73971703125,10.930267015625,14.73971703125,11.331698015625Z" fill="#A3D4FF" fill-opacity="1"/></g><g><path d="M14.03269246875,12.276052890625C13.51385746875,12.276052890625,13.08935546875,11.851002890625,13.08935546875,11.331505890625C13.08935546875,10.812006890625,13.51385746875,10.386962890625,14.03269246875,10.386962890625C14.55152546875,10.386962890625,14.97602546875,10.812006890625,14.97602546875,11.331505890625C14.97602546875,11.851002890625,14.55152546875,12.276052890625,14.03269246875,12.276052890625ZM14.03269246875,10.859233890625C13.77327446875,10.859233890625,13.56102446875,11.071755890624999,13.56102446875,11.331505890625C13.56102446875,11.591252890625,13.77327446875,11.803772890625,14.03269246875,11.803772890625C14.29210546875,11.803772890625,14.50436546875,11.591252890625,14.50436546875,11.331505890625C14.50436546875,11.071755890624999,14.29210546875,10.859233890625,14.03269246875,10.859233890625Z" fill="#2A5082" fill-opacity="1"/></g><g><path d="M8.13620140625,9.442782C8.13620140625,9.844215,7.82961140625,10.151185,7.42869440625,10.151185C7.02777540625,10.151185,6.72119140625,9.844215,6.72119140625,9.442782C6.72119140625,9.041351,7.02777640625,8.734375,7.42869440625,8.734375C7.82961140625,8.734375,8.13620140625,9.041351,8.13620140625,9.442782Z" fill="#A3D4FF" fill-opacity="1"/></g><g><path d="M7.42917684375,10.386892734375C6.91034184375,10.386892734375,6.48583984375,9.961842734375,6.48583984375,9.442345734375C6.48583984375,8.922846734375,6.91034184375,8.497802734375,7.42917684375,8.497802734375C7.94800984375,8.497802734375,8.37250984375,8.922846734375,8.37250984375,9.442345734375C8.37250984375,9.961842734375,7.94800984375,10.386892734375,7.42917684375,10.386892734375ZM7.42917684375,8.970073734375C7.16975884375,8.970073734375,6.95750884375,9.182595734374999,6.95750884375,9.442345734375C6.95750884375,9.702092734375,7.16975884375,9.914612734375,7.42917684375,9.914612734375C7.68858984375,9.914612734375,7.9008498437500005,9.702092734375,7.9008498437500005,9.442345734375C7.9008498437500005,9.182595734374999,7.68858984375,8.970073734375,7.42917684375,8.970073734375Z" fill="#2A5082" fill-opacity="1"/></g><g><path d="M3.89108421875,12.512362078125C3.89108421875,12.913795078125,3.5844942187499997,13.220765078125,3.18357721875,13.220765078125C2.78265821875,13.220765078125,2.47607421875,12.913795078125,2.47607421875,12.512362078125C2.47607421875,12.110931078125,2.78265921875,11.803955078125,3.18357721875,11.803955078125C3.5844942187499997,11.803955078125,3.89108421875,12.110931078125,3.89108421875,12.512362078125Z" fill="#A3D4FF" fill-opacity="1"/></g><g><path d="M3.18405965625,13.45696109375C2.66522465625,13.45696109375,2.24072265625,13.03191109375,2.24072265625,12.51241409375C2.24072265625,11.99291509375,2.66522465625,11.56787109375,3.18405965625,11.56787109375C3.70289265625,11.56787109375,4.1273926562500005,11.99291509375,4.1273926562500005,12.51241409375C4.1273926562500005,13.03191109375,3.70289265625,13.45696109375,3.18405965625,13.45696109375ZM3.18405965625,12.04014209375C2.92464165625,12.04014209375,2.71239165625,12.252664093749999,2.71239165625,12.51241409375C2.71239165625,12.77216109375,2.92464165625,12.98468109375,3.18405965625,12.98468109375C3.44347265625,12.98468109375,3.65573265625,12.77216109375,3.65573265625,12.51241409375C3.65573265625,12.252664093749999,3.44347265625,12.04014209375,3.18405965625,12.04014209375Z" fill="#2A5082" fill-opacity="1"/></g><g><path d="M3.89108421875,5.90030153125C3.89108421875,6.30173453125,3.5844942187499997,6.60870453125,3.18357721875,6.60870453125C2.78265821875,6.60870453125,2.47607421875,6.30173453125,2.47607421875,5.90030153125C2.47607421875,5.49887053125,2.78265921875,5.19189453125,3.18357721875,5.19189453125C3.5844942187499997,5.19189453125,3.89108421875,5.49887053125,3.89108421875,5.90030153125Z" fill="#A3D4FF" fill-opacity="1"/></g><g><path d="M3.18405965625,6.8451446874999995C2.66522465625,6.8451446874999995,2.24072265625,6.4200946875,2.24072265625,5.9005976875C2.24072265625,5.3810986875,2.66522465625,4.9560546875,3.18405965625,4.9560546875C3.70289265625,4.9560546875,4.1273926562500005,5.3810986875,4.1273926562500005,5.9005976875C4.1273926562500005,6.1603446875,4.03306265625,6.3964846875,3.84439265625,6.5617746875C3.67931265625,6.7506846875,3.44347265625,6.8451446874999995,3.18405965625,6.8451446874999995ZM3.18405965625,5.4283256875C2.92464265625,5.4283256875,2.71239165625,5.6408486875,2.71239165625,5.9005976875C2.71239165625,6.1603446875,2.92464265625,6.3728646875,3.18405965625,6.3728646875C3.3019726562500002,6.3728646875,3.41989265625,6.3256446875000005,3.5142226562500003,6.2311846875C3.60856265625,6.1367346875,3.65573265625,6.0186646875,3.65573265625,5.9005976875C3.65573265625,5.6408486875,3.44347265625,5.4283256875,3.18405965625,5.4283256875Z" fill="#2A5082" fill-opacity="1"/></g><g><path d="M8.13620140625,2.8309655937500002C8.13620140625,3.23239859375,7.82961140625,3.53936859375,7.42869440625,3.53936859375C7.02777540625,3.53936859375,6.72119140625,3.23239859375,6.72119140625,2.8309655937500002C6.72119140625,2.42953459375,7.02777640625,2.12255859375,7.42869440625,2.12255859375C7.82961140625,2.12255859375,8.13620140625,2.42953459375,8.13620140625,2.8309655937500002Z" fill="#A3D4FF" fill-opacity="1"/></g><g><path d="M7.42917684375,3.77532046875C7.16975884375,3.77532046875,6.93392484375,3.6808604687499997,6.76884084375,3.49195046875C6.58017384375,3.30304046875,6.48583984375,3.0669104687499997,6.48583984375,2.83077346875C6.48583984375,2.3112744687499998,6.91034184375,1.88623046875,7.42917684375,1.88623046875C7.94800984375,1.88623046875,8.37250984375,2.3112744687499998,8.37250984375,2.83077346875C8.37250984375,3.35027046875,7.94800984375,3.77532046875,7.42917684375,3.77532046875ZM7.42917684375,2.3585024687500002C7.16975884375,2.3585024687500002,6.95750884375,2.57102446875,6.95750884375,2.83077346875C6.95750884375,2.9488404687500003,7.00467484375,3.0669104687499997,7.09900884375,3.16136046875C7.19334284375,3.25582046875,7.31125984375,3.30304046875,7.42917684375,3.30304046875C7.68858984375,3.30304046875,7.9008498437500005,3.0905204687500003,7.9008498437500005,2.83077346875C7.9008498437500005,2.57102446875,7.68858984375,2.3585024687500002,7.42917684375,2.3585024687500002Z" fill="#2A5082" fill-opacity="1"/></g><g><path d="M14.73971703125,4.71963746875C14.73971703125,5.12107046875,14.43312703125,5.42804046875,14.032210031249999,5.42804046875C13.63129103125,5.42804046875,13.32470703125,5.12107046875,13.32470703125,4.71963746875C13.32470703125,4.31820646875,13.63129203125,4.01123046875,14.032210031249999,4.01123046875C14.43312703125,4.01123046875,14.73971703125,4.31820646875,14.73971703125,4.71963746875Z" fill="#A3D4FF" fill-opacity="1"/></g><g><path d="M14.03269246875,5.6644806249999995C13.51385746875,5.6644806249999995,13.08935546875,5.239430625,13.08935546875,4.719933625C13.08935546875,4.200434625,13.51385746875,3.775390625,14.03269246875,3.775390625C14.55152546875,3.775390625,14.97602546875,4.200434625,14.97602546875,4.719933625C14.97602546875,5.239430625,14.55152546875,5.6644806249999995,14.03269246875,5.6644806249999995ZM14.03269246875,4.247661625C13.77327446875,4.247661625,13.56102446875,4.460183625,13.56102446875,4.719933625C13.56102446875,4.979680625,13.77327446875,5.192200625,14.03269246875,5.192200625C14.29210546875,5.192200625,14.50436546875,4.979680625,14.50436546875,4.719933625C14.50436546875,4.460183625,14.29210546875,4.247661625,14.03269246875,4.247661625Z" fill="#2A5082" fill-opacity="1"/></g><g><path d="M10.495088125,7.789705828125C10.495088125,8.191138828125,10.188498125,8.498108828125,9.787581124999999,8.498108828125C9.386662125,8.498108828125,9.080078125,8.191138828125,9.080078125,7.789705828125C9.080078125,7.388274828125,9.386663125,7.081298828125,9.787581124999999,7.081298828125C10.188498125,7.081298828125,10.495088125,7.388274828125,10.495088125,7.789705828125Z" fill="#A3D4FF" fill-opacity="1"/></g><g><path d="M9.787087,8.73430484375C9.268252,8.73430484375,8.84375,8.30925484375,8.84375,7.78975784375C8.84375,7.27025884375,9.268252,6.84521484375,9.787087,6.84521484375C10.30592,6.84521484375,10.73042,7.27025884375,10.73042,7.78975784375C10.73042,8.30925484375,10.30592,8.73430484375,9.787087,8.73430484375ZM9.787087,7.31748584375C9.527669,7.31748584375,9.315419,7.53000784375,9.315419,7.78975784375C9.315419,8.04950484375,9.527669,8.26202484375,9.787087,8.26202484375C10.0465,8.26202484375,10.25876,8.04950484375,10.25876,7.78975784375C10.25876,7.53000784375,10.0465,7.31748584375,9.787087,7.31748584375Z" fill="#2A5082" fill-opacity="1"/></g></g></svg>