<svg xmlns="http://www.w3.org/2000/svg" xmlns:xlink="http://www.w3.org/1999/xlink" fill="none" version="1.1" width="26" height="26.000001907348633" viewBox="0 0 26 26.000001907348633"><defs><clipPath id="master_svg0_721_23340"><rect x="0" y="0" width="26" height="26.000001907348633" rx="0"/></clipPath></defs><g clip-path="url(#master_svg0_721_23340)"><g><path d="M7.8994121875,9.426108046875001L11.9627321875,4.293544046875C12.4923921875,3.624483046875,13.5075921875,3.624483046875,14.0372921875,4.293544046875L18.1005921875,9.426108046875001L21.9892921875,7.7596680468749994C22.4423921875,7.565538046875,22.9658921875,7.639438046875,23.3474921875,7.951408046875C23.7291921875,8.263378046875001,23.9057921875,8.761688046875001,23.8056921875,9.244378046875L21.5347921875,20.186048046875C21.2599921875,21.510548046875,20.0927921875,22.460248046875,18.7397921875,22.460248046875L7.2602521875,22.460248046875C5.9073521875,22.460348046875,4.740222187500001,21.510748046875,4.4652521875,20.186048046875L2.1945826875,9.244378046875C2.0945041875,8.761678046875,2.2710881875,8.263378046875001,2.6527731875000002,7.951408046875C3.0344571875,7.639438046875,3.5579321875,7.565538046875,4.0110621875,7.7596680468749994L7.8996821875,9.426108046875001L7.8994121875,9.426108046875001ZM12.9999921875,5.6013980468749995L9.030142187500001,10.615878046875C8.6593821875,11.084198046874999,8.020812187499999,11.246008046875,7.4717721875,11.010748046875001L3.9032721875,9.481358046875L6.0563921875,19.855648046875C6.1748021875,20.426148046875,6.6773921875,20.835248046875,7.2599821875,20.835248046875L18.7400921875,20.835248046875C19.3226921875,20.835148046875,19.8252921875,20.426148046875,19.9436921875,19.855648046875L22.0967921875,9.481358046875L18.5282921875,11.010748046875001C17.9791921875,11.246008046875,17.3406921875,11.084198046874999,16.9698921875,10.615878046875L12.9999921875,5.6013980468749995Z" fill="#6D6A71" fill-opacity="1"/></g></g></svg>