<svg xmlns="http://www.w3.org/2000/svg" xmlns:xlink="http://www.w3.org/1999/xlink" fill="none" version="1.1" width="15.529763362632366" height="15.529763362632366" viewBox="0 0 15.529763362632366 15.529763362632366"><g transform="matrix(0.7071067690849304,-0.7071067690849304,0.7071067690849304,0.7071067690849304,-5.394263458207885,2.527270427762722)"><path d="M10.413453384542466,12.567417287627343L6.074773384542465,12.568787287627345L6.074773384542465,8.212599287627343C6.074773384542465,7.971089287627343,5.878773384542465,7.775087287627343,5.637263384542465,7.775087287627343C5.3957533845424654,7.775087287627343,5.199773384542465,7.971089287627343,5.199773384542465,8.212599287627343L5.199773384542465,12.565727287627343L0.7923883845424652,12.563307287627342C0.7919423845424651,12.563307287627342,0.7915183845424651,12.563307287627342,0.7910713845424653,12.563307287627342C0.5500083845424653,12.563307287627342,0.3544538055424652,12.757987287627344,0.3535600602624652,12.999497287627342C0.35224307454246523,13.241007287627344,0.5478213845424652,13.437437287627343,0.7893083845424652,13.438307287627342L5.199753384542465,13.440727287627343L5.199753384542465,17.804387287627343C5.199753384542465,18.046287287627344,5.3957533845424654,18.241887287627343,5.637243384542465,18.241887287627343C5.878723384542465,18.241887287627343,6.074753384542465,18.046287287627344,6.074753384542465,17.804387287627343L6.074753384542465,13.443787287627345L10.409953384542465,13.442417287627343C10.410753384542465,13.442417287627343,10.411253384542466,13.442417287627343,10.411653384542465,13.442417287627343C10.652753384542466,13.442417287627343,10.848253384542465,13.247737287627343,10.849153384542465,13.006227287627343C10.850053384542464,12.764717287627343,10.654553384542465,12.568287287627342,10.413453384542466,12.567417287627343Z" fill="#757378" fill-opacity="1"/><path d="M10.599153384542465,13.005297287627343Q10.599453384542466,12.927897287627342,10.544753384542465,12.872807287627342Q10.489953384542465,12.817697287627343,10.412553384542464,12.817417287627343L5.824773384542465,12.818867287627343L5.824773384542465,8.212599287627343Q5.824773384542465,8.025087287627343,5.637263384542465,8.025087287627343Q5.449773384542465,8.025087287627343,5.449773384542465,8.212599287627343L5.449773384542465,12.815867287627343L0.7922513845424652,12.813307287627342L0.7917113845424653,12.813307287627342L0.7910713845424653,12.813307287627342Q0.6042503845424652,12.813307287627342,0.6035583845424652,13.000427287627343Q0.6031353845424652,13.078007287627344,0.6577033845424651,13.132907287627344Q0.7124803845424652,13.188027287627342,0.7902083845424652,13.188307287627342L5.449753384542465,13.190867287627343L5.449753384542465,17.804387287627343Q5.449753384542465,17.991887287627343,5.637243384542465,17.991887287627343Q5.824753384542465,17.991887287627343,5.824753384542465,17.804387287627343L5.824753384542465,13.193867287627343L10.409853384542465,13.192417287627343L10.411653384542465,13.192417287627343Q10.598453384542465,13.192417287627343,10.599153384542465,13.005297287627343L10.599153384542465,13.005297287627343ZM11.099153384542465,13.007147287627344Q11.098153384542465,13.291497287627344,10.896953384542465,13.491967287627343Q10.695853384542465,13.692417287627343,10.411653384542465,13.692417287627343L10.410053384542465,13.692417287627343L6.074833384542465,13.693787287627345L6.074753384542465,13.443787287627345L6.324753384542465,13.443787287627345L6.324753384542465,17.804387287627343Q6.324753384542465,18.089387287627343,6.123263384542465,18.290687287627343Q5.9219333845424655,18.491887287627343,5.637243384542465,18.491887287627343Q5.352543384542465,18.491887287627343,5.151213384542465,18.290687287627343Q4.949753384542465,18.089287287627343,4.949753384542465,17.804387287627343L4.949753384542465,13.440727287627343L5.199753384542465,13.440727287627343L5.199613384542465,13.690727287627343L0.7884073845424653,13.688307287627342Q0.5037263845424652,13.687277287627342,0.3030618845424652,13.485377287627344Q0.1020103845424652,13.283077287627343,0.10356138454246522,12.998577287627343Q0.10461438454246522,12.714227287627343,0.3057819845424652,12.513757287627342Q0.5069253845424653,12.313307287627342,0.7910713845424653,12.313307287627342L0.7917113845424653,12.313307287627342L0.7925263845424653,12.313307287627342L5.199913384542465,12.315727287627343L5.199773384542465,12.565727287627343L4.949773384542465,12.565727287627343L4.949773384542465,8.212599287627343Q4.949773384542465,7.927916287627343,5.151163384542465,7.726506987627343Q5.352573384542465,7.525087287627343,5.637263384542465,7.525087287627343Q5.921943384542465,7.525087287627343,6.123363384542465,7.726500187627344Q6.324773384542465,7.9279132876273435,6.324773384542465,8.212599287627343L6.324773384542465,12.568787287627345L6.074773384542465,12.568787287627345L6.074693384542465,12.318787287627345L10.414353384542466,12.317417287627343Q10.698753384542465,12.318447287627343,10.899353384542465,12.520357287627343Q11.100253384542466,12.722467287627342,11.099153384542465,13.007147287627344L11.099153384542465,13.007147287627344Z" fill="#757378" fill-opacity="1"/></g></svg>