<svg xmlns="http://www.w3.org/2000/svg" xmlns:xlink="http://www.w3.org/1999/xlink" fill="none" version="1.1" width="14" height="14" viewBox="0 0 14 14"><defs><clipPath id="master_svg0_147_13470/147_13338"><rect x="0" y="0" width="14" height="14" rx="0"/></clipPath></defs><g style="mix-blend-mode:passthrough" clip-path="url(#master_svg0_147_13470/147_13338)"><g style="mix-blend-mode:passthrough"><path d="M12.541663015441895,3.125L6.7083330154418945,3.125Q6.659087315441894,3.125,6.610787915441895,3.115393Q6.562488015441895,3.105785,6.516991015441895,3.0869400000000002Q6.471494015441895,3.068094,6.430548015441895,3.040735Q6.389602015441895,3.013375,6.354780015441895,2.978553Q6.319958015441895,2.943731,6.292598015441895,2.902785Q6.265239015441894,2.861839,6.246393015441894,2.816342Q6.2275480154418945,2.770845,6.2179400154418945,2.7225451Q6.2083330154418945,2.6742457,6.2083330154418945,2.625Q6.2083330154418945,2.5757543,6.2179400154418945,2.5274549Q6.2275480154418945,2.479155,6.246393015441894,2.433658Q6.265239015441894,2.388161,6.292598015441895,2.347215Q6.319958015441895,2.306269,6.354780015441895,2.271447Q6.389602015441895,2.236625,6.430548015441895,2.209265Q6.471494015441895,2.181906,6.516991015441895,2.1630599999999998Q6.562488015441895,2.144215,6.610787915441895,2.134607Q6.659087315441894,2.125,6.7083330154418945,2.125L12.541663015441895,2.125Q12.590913015441895,2.125,12.639213015441895,2.134607Q12.687513015441894,2.144215,12.733003015441895,2.1630599999999998Q12.778503015441895,2.181906,12.819453015441894,2.209265Q12.860393015441893,2.236625,12.895223015441895,2.271447Q12.930043015441894,2.306269,12.957403015441894,2.347215Q12.984763015441896,2.388161,13.003603015441895,2.433658Q13.022453015441894,2.479155,13.032063015441896,2.5274549Q13.041663015441895,2.5757543,13.041663015441895,2.625Q13.041663015441895,2.6742457,13.032063015441896,2.7225451Q13.022453015441894,2.770845,13.003603015441895,2.816342Q12.984763015441896,2.861839,12.957403015441894,2.902785Q12.930043015441894,2.943731,12.895223015441895,2.978553Q12.860393015441893,3.013375,12.819453015441894,3.040735Q12.778503015441895,3.068094,12.733003015441895,3.0869400000000002Q12.687513015441894,3.105785,12.639213015441895,3.115393Q12.590913015441895,3.125,12.541663015441895,3.125ZM13.041663015441895,2.625Q13.041663015441895,2.6742457,13.032063015441896,2.7225451Q13.022453015441894,2.770845,13.003603015441895,2.816342Q12.984763015441896,2.861839,12.957403015441894,2.902785Q12.930043015441894,2.943731,12.895223015441895,2.978553Q12.860393015441893,3.013375,12.819453015441894,3.040735Q12.778503015441895,3.068094,12.733003015441895,3.0869400000000002Q12.687513015441894,3.105785,12.639213015441895,3.115393Q12.590913015441895,3.125,12.541663015441895,3.125Q12.492423015441894,3.125,12.444123015441894,3.115393Q12.395823015441895,3.105785,12.350323015441894,3.0869400000000002Q12.304823015441894,3.068094,12.263883015441895,3.040735Q12.222933015441894,3.013375,12.188113015441894,2.978553Q12.153293015441895,2.943731,12.125933015441895,2.902785Q12.098573015441895,2.861839,12.079723015441894,2.816342Q12.060883015441895,2.770845,12.051273015441893,2.7225451Q12.041663015441895,2.6742457,12.041663015441895,2.625Q12.041663015441895,2.5757543,12.051273015441893,2.5274549Q12.060883015441895,2.479155,12.079723015441894,2.433658Q12.098573015441895,2.388161,12.125933015441895,2.347215Q12.153293015441895,2.306269,12.188113015441894,2.271447Q12.222933015441894,2.236625,12.263883015441895,2.209265Q12.304823015441894,2.181906,12.350323015441894,2.1630599999999998Q12.395823015441895,2.144215,12.444123015441894,2.134607Q12.492423015441894,2.125,12.541663015441895,2.125Q12.590913015441895,2.125,12.639213015441895,2.134607Q12.687513015441894,2.144215,12.733003015441895,2.1630599999999998Q12.778503015441895,2.181906,12.819453015441894,2.209265Q12.860393015441893,2.236625,12.895223015441895,2.271447Q12.930043015441894,2.306269,12.957403015441894,2.347215Q12.984763015441896,2.388161,13.003603015441895,2.433658Q13.022453015441894,2.479155,13.032063015441896,2.5274549Q13.041663015441895,2.5757543,13.041663015441895,2.625ZM7.2083330154418945,2.625Q7.2083330154418945,2.6742457,7.198726015441895,2.7225451Q7.1891180154418945,2.770845,7.170273015441895,2.816342Q7.151427015441895,2.861839,7.124068015441894,2.902785Q7.0967080154418944,2.943731,7.061886015441894,2.978553Q7.027064015441894,3.013375,6.986118015441894,3.040735Q6.945172015441894,3.068094,6.899675015441894,3.0869400000000002Q6.854178015441894,3.105785,6.805878115441894,3.115393Q6.757578715441895,3.125,6.7083330154418945,3.125Q6.659087315441894,3.125,6.610787915441895,3.115393Q6.562488015441895,3.105785,6.516991015441895,3.0869400000000002Q6.471494015441895,3.068094,6.430548015441895,3.040735Q6.389602015441895,3.013375,6.354780015441895,2.978553Q6.319958015441895,2.943731,6.292598015441895,2.902785Q6.265239015441894,2.861839,6.246393015441894,2.816342Q6.2275480154418945,2.770845,6.2179400154418945,2.7225451Q6.2083330154418945,2.6742457,6.2083330154418945,2.625Q6.2083330154418945,2.5757543,6.2179400154418945,2.5274549Q6.2275480154418945,2.479155,6.246393015441894,2.433658Q6.265239015441894,2.388161,6.292598015441895,2.347215Q6.319958015441895,2.306269,6.354780015441895,2.271447Q6.389602015441895,2.236625,6.430548015441895,2.209265Q6.471494015441895,2.181906,6.516991015441895,2.1630599999999998Q6.562488015441895,2.144215,6.610787915441895,2.134607Q6.659087315441894,2.125,6.7083330154418945,2.125Q6.757578715441895,2.125,6.805878115441894,2.134607Q6.854178015441894,2.144215,6.899675015441894,2.1630599999999998Q6.945172015441894,2.181906,6.986118015441894,2.209265Q7.027064015441894,2.236625,7.061886015441894,2.271447Q7.0967080154418944,2.306269,7.124068015441894,2.347215Q7.151427015441895,2.388161,7.170273015441895,2.433658Q7.1891180154418945,2.479155,7.198726015441895,2.5274549Q7.2083330154418945,2.5757543,7.2083330154418945,2.625Z" fill="#FFFFFF" fill-opacity="1"/></g><g style="mix-blend-mode:passthrough"><path d="M4.145223253860474,2.6868864922790525L1.8118862538604736,5.020223492279053Q1.7770642538604737,5.055043492279053,1.7361182538604736,5.082403492279052Q1.6951722538604737,5.109763492279052,1.6496752538604738,5.128603492279053Q1.6041782538604736,5.147453492279053,1.5558783538604737,5.157063492279052Q1.5075789538604736,5.166663492279053,1.4583332538604736,5.166663492279053Q1.4090875538604737,5.166663492279053,1.3607881538604736,5.157063492279052Q1.3124882538604736,5.147453492279053,1.2669912538604735,5.128603492279053Q1.2214942538604736,5.109763492279052,1.1805482538604737,5.082403492279052Q1.1396022538604735,5.055043492279053,1.1047802538604736,5.020223492279053Q1.0699582538604737,4.985393492279053,1.0425982538604737,4.944453492279052Q1.0152392538604738,4.903503492279053,0.9963932538604736,4.858003492279053Q0.9775482538604736,4.812513492279052,0.9679402538604736,4.764213492279053Q0.9583332538604736,4.715913492279053,0.9583332538604736,4.666663492279053Q0.9583332538604736,4.617423492279053,0.9679402538604736,4.5691234922790525Q0.9775482538604736,4.520823492279053,0.9963932538604736,4.475323492279053Q1.0152392538604738,4.429823492279053,1.0425982538604737,4.388883492279053Q1.0699582538604737,4.3479334922790525,1.1047802538604736,4.313113492279053L3.4381132538604735,1.9797804922790527Q3.472933253860474,1.9449584922790528,3.513883253860474,1.9175984922790528Q3.554823253860474,1.8902394922790529,3.6003232538604735,1.8713934922790527Q3.6458232538604736,1.8525484922790527,3.694123253860474,1.8429404922790527Q3.7424232538604736,1.8333334922790527,3.7916632538604738,1.8333334922790527Q3.8409132538604736,1.8333334922790527,3.889213253860474,1.8429404922790527Q3.9375132538604736,1.8525484922790527,3.9830032538604736,1.8713934922790527Q4.028503253860474,1.8902394922790529,4.069453253860473,1.9175984922790528Q4.110393253860474,1.9449584922790528,4.145223253860474,1.9797804922790527Q4.1800432538604735,2.0146024922790526,4.207403253860473,2.0555484922790526Q4.234763253860473,2.096494492279053,4.253603253860474,2.1419914922790526Q4.272453253860474,2.1874884922790527,4.282063253860473,2.2357883922790527Q4.291663253860474,2.2840877922790526,4.291663253860474,2.3333334922790527Q4.291663253860474,2.382579192279053,4.282063253860473,2.430878592279053Q4.272453253860474,2.4791784922790527,4.253603253860474,2.524675492279053Q4.234763253860473,2.5701724922790525,4.207403253860473,2.611118492279053Q4.1800432538604735,2.652064492279053,4.145223253860474,2.6868864922790525ZM4.291663253860474,2.3333334922790527Q4.291663253860474,2.382579192279053,4.282063253860473,2.430878592279053Q4.272453253860474,2.4791784922790527,4.253603253860474,2.524675492279053Q4.234763253860473,2.5701724922790525,4.207403253860473,2.611118492279053Q4.1800432538604735,2.652064492279053,4.145223253860474,2.6868864922790525Q4.110393253860474,2.7217084922790526,4.069453253860473,2.749068492279053Q4.028503253860474,2.7764274922790526,3.9830032538604736,2.795273492279053Q3.9375132538604736,2.8141184922790528,3.889213253860474,2.823726492279053Q3.8409132538604736,2.8333334922790527,3.7916632538604738,2.8333334922790527Q3.7424232538604736,2.8333334922790527,3.694123253860474,2.823726492279053Q3.6458232538604736,2.8141184922790528,3.6003232538604735,2.795273492279053Q3.554823253860474,2.7764274922790526,3.513883253860474,2.749068492279053Q3.472933253860474,2.7217084922790526,3.4381132538604735,2.6868864922790525Q3.4032932538604737,2.652064492279053,3.375933253860474,2.611118492279053Q3.3485732538604736,2.5701724922790525,3.3297232538604735,2.524675492279053Q3.3108832538604736,2.4791784922790527,3.3012732538604737,2.430878592279053Q3.2916632538604738,2.382579192279053,3.2916632538604738,2.3333334922790527Q3.2916632538604738,2.2840877922790526,3.3012732538604737,2.2357883922790527Q3.3108832538604736,2.1874884922790527,3.3297232538604735,2.1419914922790526Q3.3485732538604736,2.096494492279053,3.375933253860474,2.0555484922790526Q3.4032932538604737,2.0146024922790526,3.4381132538604735,1.9797804922790527Q3.472933253860474,1.9449584922790528,3.513883253860474,1.9175984922790528Q3.554823253860474,1.8902394922790529,3.6003232538604735,1.8713934922790527Q3.6458232538604736,1.8525484922790527,3.694123253860474,1.8429404922790527Q3.7424232538604736,1.8333334922790527,3.7916632538604738,1.8333334922790527Q3.8409132538604736,1.8333334922790527,3.889213253860474,1.8429404922790527Q3.9375132538604736,1.8525484922790527,3.9830032538604736,1.8713934922790527Q4.028503253860474,1.8902394922790529,4.069453253860473,1.9175984922790528Q4.110393253860474,1.9449584922790528,4.145223253860474,1.9797804922790527Q4.1800432538604735,2.0146024922790526,4.207403253860473,2.0555484922790526Q4.234763253860473,2.096494492279053,4.253603253860474,2.1419914922790526Q4.272453253860474,2.1874884922790527,4.282063253860473,2.2357883922790527Q4.291663253860474,2.2840877922790526,4.291663253860474,2.3333334922790527ZM1.9583332538604736,4.666663492279053Q1.9583332538604736,4.715913492279053,1.9487262538604737,4.764213492279053Q1.9391182538604737,4.812513492279052,1.9202732538604737,4.858003492279053Q1.9014272538604735,4.903503492279053,1.8740682538604736,4.944453492279052Q1.8467082538604735,4.985393492279053,1.8118862538604736,5.020223492279053Q1.7770642538604737,5.055043492279053,1.7361182538604736,5.082403492279052Q1.6951722538604737,5.109763492279052,1.6496752538604738,5.128603492279053Q1.6041782538604736,5.147453492279053,1.5558783538604737,5.157063492279052Q1.5075789538604736,5.166663492279053,1.4583332538604736,5.166663492279053Q1.4090875538604737,5.166663492279053,1.3607881538604736,5.157063492279052Q1.3124882538604736,5.147453492279053,1.2669912538604735,5.128603492279053Q1.2214942538604736,5.109763492279052,1.1805482538604737,5.082403492279052Q1.1396022538604735,5.055043492279053,1.1047802538604736,5.020223492279053Q1.0699582538604737,4.985393492279053,1.0425982538604737,4.944453492279052Q1.0152392538604738,4.903503492279053,0.9963932538604736,4.858003492279053Q0.9775482538604736,4.812513492279052,0.9679402538604736,4.764213492279053Q0.9583332538604736,4.715913492279053,0.9583332538604736,4.666663492279053Q0.9583332538604736,4.617423492279053,0.9679402538604736,4.5691234922790525Q0.9775482538604736,4.520823492279053,0.9963932538604736,4.475323492279053Q1.0152392538604738,4.429823492279053,1.0425982538604737,4.388883492279053Q1.0699582538604737,4.3479334922790525,1.1047802538604736,4.313113492279053Q1.1396022538604735,4.278293492279053,1.1805482538604737,4.250933492279053Q1.2214942538604736,4.223573492279053,1.2669912538604735,4.204723492279053Q1.3124882538604736,4.185883492279053,1.3607881538604736,4.176273492279053Q1.4090875538604737,4.166663492279053,1.4583332538604736,4.166663492279053Q1.5075789538604736,4.166663492279053,1.5558783538604737,4.176273492279053Q1.6041782538604736,4.185883492279053,1.6496752538604738,4.204723492279053Q1.6951722538604737,4.223573492279053,1.7361182538604736,4.250933492279053Q1.7770642538604737,4.278293492279053,1.8118862538604736,4.313113492279053Q1.8467082538604735,4.3479334922790525,1.8740682538604736,4.388883492279053Q1.9014272538604735,4.429823492279053,1.9202732538604737,4.475323492279053Q1.9391182538604737,4.520823492279053,1.9487262538604737,4.5691234922790525Q1.9583332538604736,4.617423492279053,1.9583332538604736,4.666663492279053Z" fill="#FFFFFF" fill-opacity="1"/></g><g style="mix-blend-mode:passthrough"><path d="M3.2916667461395264,12.250003492279053L3.2916667461395264,2.3333334922790527Q3.2916667461395264,2.2840877922790526,3.3012737461395263,2.2357883922790527Q3.3108817461395263,2.1874884922790527,3.329726746139526,2.1419914922790526Q3.3485727461395265,2.096494492279053,3.375931746139526,2.0555484922790526Q3.4032917461395265,2.0146024922790526,3.4381137461395266,1.9797804922790527Q3.4729357461395263,1.9449584922790528,3.513881746139526,1.9175984922790528Q3.5548277461395266,1.8902394922790529,3.6003247461395262,1.8713934922790527Q3.6458217461395264,1.8525484922790527,3.6941216461395263,1.8429404922790527Q3.742421046139526,1.8333334922790527,3.7916667461395264,1.8333334922790527Q3.8409124461395265,1.8333334922790527,3.8892118461395264,1.8429404922790527Q3.9375117461395264,1.8525484922790527,3.9830087461395265,1.8713934922790527Q4.028505746139526,1.8902394922790529,4.069451746139526,1.9175984922790528Q4.110397746139526,1.9449584922790528,4.145219746139526,1.9797804922790527Q4.180041746139526,2.0146024922790526,4.207401746139526,2.0555484922790526Q4.234760746139527,2.096494492279053,4.253606746139527,2.1419914922790526Q4.272451746139526,2.1874884922790527,4.2820597461395264,2.2357883922790527Q4.291666746139526,2.2840877922790526,4.291666746139526,2.3333334922790527L4.291666746139526,12.250003492279053Q4.291666746139526,12.299243492279052,4.2820597461395264,12.347533492279053Q4.272451746139526,12.395833492279053,4.253606746139527,12.441333492279053Q4.234760746139527,12.486833492279052,4.207401746139526,12.527733492279053Q4.180041746139526,12.568733492279053,4.145219746139526,12.603533492279054Q4.110397746139526,12.638333492279052,4.069451746139526,12.665733492279053Q4.028505746139526,12.693133492279053,3.9830087461395265,12.711933492279053Q3.9375117461395264,12.730733492279052,3.8892118461395264,12.740433492279053Q3.8409124461395265,12.750033492279053,3.7916667461395264,12.750033492279053Q3.742421046139526,12.750033492279053,3.6941216461395263,12.740433492279053Q3.6458217461395264,12.730733492279052,3.6003247461395262,12.711933492279053Q3.5548277461395266,12.693133492279053,3.513881746139526,12.665733492279053Q3.4729357461395263,12.638333492279052,3.4381137461395266,12.603533492279054Q3.4032917461395265,12.568733492279053,3.375931746139526,12.527733492279053Q3.3485727461395265,12.486833492279052,3.329726746139526,12.441333492279053Q3.3108817461395263,12.395833492279053,3.3012737461395263,12.347533492279053Q3.2916667461395264,12.299243492279052,3.2916667461395264,12.250003492279053ZM4.291666746139526,12.250003492279053Q4.291666746139526,12.299243492279052,4.2820597461395264,12.347533492279053Q4.272451746139526,12.395833492279053,4.253606746139527,12.441333492279053Q4.234760746139527,12.486833492279052,4.207401746139526,12.527733492279053Q4.180041746139526,12.568733492279053,4.145219746139526,12.603533492279054Q4.110397746139526,12.638333492279052,4.069451746139526,12.665733492279053Q4.028505746139526,12.693133492279053,3.9830087461395265,12.711933492279053Q3.9375117461395264,12.730733492279052,3.8892118461395264,12.740433492279053Q3.8409124461395265,12.750033492279053,3.7916667461395264,12.750033492279053Q3.742421046139526,12.750033492279053,3.6941216461395263,12.740433492279053Q3.6458217461395264,12.730733492279052,3.6003247461395262,12.711933492279053Q3.5548277461395266,12.693133492279053,3.513881746139526,12.665733492279053Q3.4729357461395263,12.638333492279052,3.4381137461395266,12.603533492279054Q3.4032917461395265,12.568733492279053,3.375931746139526,12.527733492279053Q3.3485727461395265,12.486833492279052,3.329726746139526,12.441333492279053Q3.3108817461395263,12.395833492279053,3.3012737461395263,12.347533492279053Q3.2916667461395264,12.299243492279052,3.2916667461395264,12.250003492279053Q3.2916667461395264,12.200753492279052,3.3012737461395263,12.152453492279053Q3.3108817461395263,12.104153492279053,3.329726746139526,12.058653492279053Q3.3485727461395265,12.013163492279054,3.375931746139526,11.972213492279053Q3.4032917461395265,11.931263492279053,3.4381137461395266,11.896443492279053Q3.4729357461395263,11.861623492279053,3.513881746139526,11.834263492279053Q3.5548277461395266,11.806903492279053,3.6003247461395262,11.788063492279052Q3.6458217461395264,11.769213492279052,3.6941216461395263,11.759603492279053Q3.742421046139526,11.750003492279053,3.7916667461395264,11.750003492279053Q3.8409124461395265,11.750003492279053,3.8892118461395264,11.759603492279053Q3.9375117461395264,11.769213492279052,3.9830087461395265,11.788063492279052Q4.028505746139526,11.806903492279053,4.069451746139526,11.834263492279053Q4.110397746139526,11.861623492279053,4.145219746139526,11.896443492279053Q4.180041746139526,11.931263492279053,4.207401746139526,11.972213492279053Q4.234760746139527,12.013163492279054,4.253606746139527,12.058653492279053Q4.272451746139526,12.104153492279053,4.2820597461395264,12.152453492279053Q4.291666746139526,12.200753492279052,4.291666746139526,12.250003492279053ZM4.291666746139526,2.3333334922790527Q4.291666746139526,2.382579192279053,4.2820597461395264,2.430878592279053Q4.272451746139526,2.4791784922790527,4.253606746139527,2.524675492279053Q4.234760746139527,2.5701724922790525,4.207401746139526,2.611118492279053Q4.180041746139526,2.652064492279053,4.145219746139526,2.6868864922790525Q4.110397746139526,2.7217084922790526,4.069451746139526,2.749068492279053Q4.028505746139526,2.7764274922790526,3.9830087461395265,2.795273492279053Q3.9375117461395264,2.8141184922790528,3.8892118461395264,2.823726492279053Q3.8409124461395265,2.8333334922790527,3.7916667461395264,2.8333334922790527Q3.742421046139526,2.8333334922790527,3.6941216461395263,2.823726492279053Q3.6458217461395264,2.8141184922790528,3.6003247461395262,2.795273492279053Q3.5548277461395266,2.7764274922790526,3.513881746139526,2.749068492279053Q3.4729357461395263,2.7217084922790526,3.4381137461395266,2.6868864922790525Q3.4032917461395265,2.652064492279053,3.375931746139526,2.611118492279053Q3.3485727461395265,2.5701724922790525,3.329726746139526,2.524675492279053Q3.3108817461395263,2.4791784922790527,3.3012737461395263,2.430878592279053Q3.2916667461395264,2.382579192279053,3.2916667461395264,2.3333334922790527Q3.2916667461395264,2.2840877922790526,3.3012737461395263,2.2357883922790527Q3.3108817461395263,2.1874884922790527,3.329726746139526,2.1419914922790526Q3.3485727461395265,2.096494492279053,3.375931746139526,2.0555484922790526Q3.4032917461395265,2.0146024922790526,3.4381137461395266,1.9797804922790527Q3.4729357461395263,1.9449584922790528,3.513881746139526,1.9175984922790528Q3.5548277461395266,1.8902394922790529,3.6003247461395262,1.8713934922790527Q3.6458217461395264,1.8525484922790527,3.6941216461395263,1.8429404922790527Q3.742421046139526,1.8333334922790527,3.7916667461395264,1.8333334922790527Q3.8409124461395265,1.8333334922790527,3.8892118461395264,1.8429404922790527Q3.9375117461395264,1.8525484922790527,3.9830087461395265,1.8713934922790527Q4.028505746139526,1.8902394922790529,4.069451746139526,1.9175984922790528Q4.110397746139526,1.9449584922790528,4.145219746139526,1.9797804922790527Q4.180041746139526,2.0146024922790526,4.207401746139526,2.0555484922790526Q4.234760746139527,2.096494492279053,4.253606746139527,2.1419914922790526Q4.272451746139526,2.1874884922790527,4.2820597461395264,2.2357883922790527Q4.291666746139526,2.2840877922790526,4.291666746139526,2.3333334922790527Z" fill="#FFFFFF" fill-opacity="1"/></g><g style="mix-blend-mode:passthrough"><path d="M11.375003015441894,6.0416669845581055L6.7083330154418945,6.0416669845581055Q6.659087315441894,6.0416669845581055,6.610787915441895,6.0320599845581055Q6.562488015441895,6.0224519845581055,6.516991015441895,6.003606984558106Q6.471494015441895,5.984760984558106,6.430548015441895,5.957401984558105Q6.389602015441895,5.930041984558105,6.354780015441895,5.895219984558105Q6.319958015441895,5.860397984558105,6.292598015441895,5.819451984558105Q6.265239015441894,5.778505984558105,6.246393015441894,5.733008984558105Q6.2275480154418945,5.687511984558105,6.2179400154418945,5.639212084558105Q6.2083330154418945,5.590912684558106,6.2083330154418945,5.5416669845581055Q6.2083330154418945,5.492421284558105,6.2179400154418945,5.444121884558106Q6.2275480154418945,5.395821984558106,6.246393015441894,5.350324984558106Q6.265239015441894,5.304827984558106,6.292598015441895,5.263881984558106Q6.319958015441895,5.222935984558106,6.354780015441895,5.188113984558106Q6.389602015441895,5.1532919845581056,6.430548015441895,5.125931984558106Q6.471494015441895,5.098572984558105,6.516991015441895,5.079726984558105Q6.562488015441895,5.0608819845581055,6.610787915441895,5.051273984558105Q6.659087315441894,5.0416669845581055,6.7083330154418945,5.0416669845581055L11.375003015441894,5.0416669845581055Q11.424243015441895,5.0416669845581055,11.472543015441895,5.051273984558105Q11.520843015441894,5.0608819845581055,11.566343015441895,5.079726984558105Q11.611843015441895,5.098572984558105,11.652783015441894,5.125931984558106Q11.693733015441895,5.1532919845581056,11.728553015441895,5.188113984558106Q11.763373015441895,5.222935984558106,11.790733015441894,5.263881984558106Q11.818093015441894,5.304827984558106,11.836943015441895,5.350324984558106Q11.855783015441894,5.395821984558106,11.865393015441896,5.444121884558106Q11.875003015441894,5.492421284558105,11.875003015441894,5.5416669845581055Q11.875003015441894,5.590912684558106,11.865393015441896,5.639212084558105Q11.855783015441894,5.687511984558105,11.836943015441895,5.733008984558105Q11.818093015441894,5.778505984558105,11.790733015441894,5.819451984558105Q11.763373015441895,5.860397984558105,11.728553015441895,5.895219984558105Q11.693733015441895,5.930041984558105,11.652783015441894,5.957401984558105Q11.611843015441895,5.984760984558106,11.566343015441895,6.003606984558106Q11.520843015441894,6.0224519845581055,11.472543015441895,6.0320599845581055Q11.424243015441895,6.0416669845581055,11.375003015441894,6.0416669845581055ZM11.875003015441894,5.5416669845581055Q11.875003015441894,5.590912684558106,11.865393015441896,5.639212084558105Q11.855783015441894,5.687511984558105,11.836943015441895,5.733008984558105Q11.818093015441894,5.778505984558105,11.790733015441894,5.819451984558105Q11.763373015441895,5.860397984558105,11.728553015441895,5.895219984558105Q11.693733015441895,5.930041984558105,11.652783015441894,5.957401984558105Q11.611843015441895,5.984760984558106,11.566343015441895,6.003606984558106Q11.520843015441894,6.0224519845581055,11.472543015441895,6.0320599845581055Q11.424243015441895,6.0416669845581055,11.375003015441894,6.0416669845581055Q11.325753015441894,6.0416669845581055,11.277453015441894,6.0320599845581055Q11.229153015441895,6.0224519845581055,11.183653015441894,6.003606984558106Q11.138163015441894,5.984760984558106,11.097213015441895,5.957401984558105Q11.056263015441894,5.930041984558105,11.021443015441895,5.895219984558105Q10.986623015441895,5.860397984558105,10.959263015441895,5.819451984558105Q10.931903015441893,5.778505984558105,10.913063015441894,5.733008984558105Q10.894213015441895,5.687511984558105,10.884603015441893,5.639212084558105Q10.875003015441894,5.590912684558106,10.875003015441894,5.5416669845581055Q10.875003015441894,5.492421284558105,10.884603015441893,5.444121884558106Q10.894213015441895,5.395821984558106,10.913063015441894,5.350324984558106Q10.931903015441893,5.304827984558106,10.959263015441895,5.263881984558106Q10.986623015441895,5.222935984558106,11.021443015441895,5.188113984558106Q11.056263015441894,5.1532919845581056,11.097213015441895,5.125931984558106Q11.138163015441894,5.098572984558105,11.183653015441894,5.079726984558105Q11.229153015441895,5.0608819845581055,11.277453015441894,5.051273984558105Q11.325753015441894,5.0416669845581055,11.375003015441894,5.0416669845581055Q11.424243015441895,5.0416669845581055,11.472543015441895,5.051273984558105Q11.520843015441894,5.0608819845581055,11.566343015441895,5.079726984558105Q11.611843015441895,5.098572984558105,11.652783015441894,5.125931984558106Q11.693733015441895,5.1532919845581056,11.728553015441895,5.188113984558106Q11.763373015441895,5.222935984558106,11.790733015441894,5.263881984558106Q11.818093015441894,5.304827984558106,11.836943015441895,5.350324984558106Q11.855783015441894,5.395821984558106,11.865393015441896,5.444121884558106Q11.875003015441894,5.492421284558105,11.875003015441894,5.5416669845581055ZM7.2083330154418945,5.5416669845581055Q7.2083330154418945,5.590912684558106,7.198726015441895,5.639212084558105Q7.1891180154418945,5.687511984558105,7.170273015441895,5.733008984558105Q7.151427015441895,5.778505984558105,7.124068015441894,5.819451984558105Q7.0967080154418944,5.860397984558105,7.061886015441894,5.895219984558105Q7.027064015441894,5.930041984558105,6.986118015441894,5.957401984558105Q6.945172015441894,5.984760984558106,6.899675015441894,6.003606984558106Q6.854178015441894,6.0224519845581055,6.805878115441894,6.0320599845581055Q6.757578715441895,6.0416669845581055,6.7083330154418945,6.0416669845581055Q6.659087315441894,6.0416669845581055,6.610787915441895,6.0320599845581055Q6.562488015441895,6.0224519845581055,6.516991015441895,6.003606984558106Q6.471494015441895,5.984760984558106,6.430548015441895,5.957401984558105Q6.389602015441895,5.930041984558105,6.354780015441895,5.895219984558105Q6.319958015441895,5.860397984558105,6.292598015441895,5.819451984558105Q6.265239015441894,5.778505984558105,6.246393015441894,5.733008984558105Q6.2275480154418945,5.687511984558105,6.2179400154418945,5.639212084558105Q6.2083330154418945,5.590912684558106,6.2083330154418945,5.5416669845581055Q6.2083330154418945,5.492421284558105,6.2179400154418945,5.444121884558106Q6.2275480154418945,5.395821984558106,6.246393015441894,5.350324984558106Q6.265239015441894,5.304827984558106,6.292598015441895,5.263881984558106Q6.319958015441895,5.222935984558106,6.354780015441895,5.188113984558106Q6.389602015441895,5.1532919845581056,6.430548015441895,5.125931984558106Q6.471494015441895,5.098572984558105,6.516991015441895,5.079726984558105Q6.562488015441895,5.0608819845581055,6.610787915441895,5.051273984558105Q6.659087315441894,5.0416669845581055,6.7083330154418945,5.0416669845581055Q6.757578715441895,5.0416669845581055,6.805878115441894,5.051273984558105Q6.854178015441894,5.0608819845581055,6.899675015441894,5.079726984558105Q6.945172015441894,5.098572984558105,6.986118015441894,5.125931984558106Q7.027064015441894,5.1532919845581056,7.061886015441894,5.188113984558106Q7.0967080154418944,5.222935984558106,7.124068015441894,5.263881984558106Q7.151427015441895,5.304827984558106,7.170273015441895,5.350324984558106Q7.1891180154418945,5.395821984558106,7.198726015441895,5.444121884558106Q7.2083330154418945,5.492421284558105,7.2083330154418945,5.5416669845581055Z" fill="#FFFFFF" fill-opacity="1"/></g><g style="mix-blend-mode:passthrough"><path d="M10.208333015441895,8.958333969116211L6.7083330154418945,8.958333969116211Q6.659087315441894,8.958333969116211,6.610787915441895,8.94872696911621Q6.562488015441895,8.939118969116212,6.516991015441895,8.920273969116211Q6.471494015441895,8.901427969116211,6.430548015441895,8.87406896911621Q6.389602015441895,8.84670896911621,6.354780015441895,8.81188696911621Q6.319958015441895,8.77706496911621,6.292598015441895,8.73611896911621Q6.265239015441894,8.69517296911621,6.246393015441894,8.649675969116212Q6.2275480154418945,8.60417896911621,6.2179400154418945,8.55587906911621Q6.2083330154418945,8.507579669116211,6.2083330154418945,8.458333969116211Q6.2083330154418945,8.40908826911621,6.2179400154418945,8.360788869116211Q6.2275480154418945,8.312488969116211,6.246393015441894,8.26699196911621Q6.265239015441894,8.221494969116211,6.292598015441895,8.180548969116211Q6.319958015441895,8.139602969116211,6.354780015441895,8.104780969116211Q6.389602015441895,8.069958969116211,6.430548015441895,8.042598969116211Q6.471494015441895,8.01523996911621,6.516991015441895,7.996393969116211Q6.562488015441895,7.977548969116211,6.610787915441895,7.967940969116211Q6.659087315441894,7.958333969116211,6.7083330154418945,7.958333969116211L10.208333015441895,7.958333969116211Q10.257583015441895,7.958333969116211,10.305873015441895,7.967940969116211Q10.354173015441894,7.977548969116211,10.399673015441895,7.996393969116211Q10.445173015441895,8.01523996911621,10.486113015441894,8.042598969116211Q10.527063015441895,8.069958969116211,10.561883015441895,8.104780969116211Q10.596713015441894,8.139602969116211,10.624063015441894,8.180548969116211Q10.651423015441894,8.221494969116211,10.670273015441895,8.26699196911621Q10.689113015441894,8.312488969116211,10.698723015441894,8.360788869116211Q10.708333015441895,8.40908826911621,10.708333015441895,8.458333969116211Q10.708333015441895,8.507579669116211,10.698723015441894,8.55587906911621Q10.689113015441894,8.60417896911621,10.670273015441895,8.649675969116212Q10.651423015441894,8.69517296911621,10.624063015441894,8.73611896911621Q10.596713015441894,8.77706496911621,10.561883015441895,8.81188696911621Q10.527063015441895,8.84670896911621,10.486113015441894,8.87406896911621Q10.445173015441895,8.901427969116211,10.399673015441895,8.920273969116211Q10.354173015441894,8.939118969116212,10.305873015441895,8.94872696911621Q10.257583015441895,8.958333969116211,10.208333015441895,8.958333969116211ZM10.708333015441895,8.458333969116211Q10.708333015441895,8.507579669116211,10.698723015441894,8.55587906911621Q10.689113015441894,8.60417896911621,10.670273015441895,8.649675969116212Q10.651423015441894,8.69517296911621,10.624063015441894,8.73611896911621Q10.596713015441894,8.77706496911621,10.561883015441895,8.81188696911621Q10.527063015441895,8.84670896911621,10.486113015441894,8.87406896911621Q10.445173015441895,8.901427969116211,10.399673015441895,8.920273969116211Q10.354173015441894,8.939118969116212,10.305873015441895,8.94872696911621Q10.257583015441895,8.958333969116211,10.208333015441895,8.958333969116211Q10.159083015441894,8.958333969116211,10.110783015441895,8.94872696911621Q10.062483015441895,8.939118969116212,10.016993015441894,8.920273969116211Q9.971493015441894,8.901427969116211,9.930543015441895,8.87406896911621Q9.889603015441894,8.84670896911621,9.854783015441894,8.81188696911621Q9.819953015441895,8.77706496911621,9.792593015441895,8.73611896911621Q9.765243015441895,8.69517296911621,9.746393015441894,8.649675969116212Q9.727543015441896,8.60417896911621,9.717943015441895,8.55587906911621Q9.708333015441895,8.507579669116211,9.708333015441895,8.458333969116211Q9.708333015441895,8.40908826911621,9.717943015441895,8.360788869116211Q9.727543015441896,8.312488969116211,9.746393015441894,8.26699196911621Q9.765243015441895,8.221494969116211,9.792593015441895,8.180548969116211Q9.819953015441895,8.139602969116211,9.854783015441894,8.104780969116211Q9.889603015441894,8.069958969116211,9.930543015441895,8.042598969116211Q9.971493015441894,8.01523996911621,10.016993015441894,7.996393969116211Q10.062483015441895,7.977548969116211,10.110783015441895,7.967940969116211Q10.159083015441894,7.958333969116211,10.208333015441895,7.958333969116211Q10.257583015441895,7.958333969116211,10.305873015441895,7.967940969116211Q10.354173015441894,7.977548969116211,10.399673015441895,7.996393969116211Q10.445173015441895,8.01523996911621,10.486113015441894,8.042598969116211Q10.527063015441895,8.069958969116211,10.561883015441895,8.104780969116211Q10.596713015441894,8.139602969116211,10.624063015441894,8.180548969116211Q10.651423015441894,8.221494969116211,10.670273015441895,8.26699196911621Q10.689113015441894,8.312488969116211,10.698723015441894,8.360788869116211Q10.708333015441895,8.40908826911621,10.708333015441895,8.458333969116211ZM7.2083330154418945,8.458333969116211Q7.2083330154418945,8.507579669116211,7.198726015441895,8.55587906911621Q7.1891180154418945,8.60417896911621,7.170273015441895,8.649675969116212Q7.151427015441895,8.69517296911621,7.124068015441894,8.73611896911621Q7.0967080154418944,8.77706496911621,7.061886015441894,8.81188696911621Q7.027064015441894,8.84670896911621,6.986118015441894,8.87406896911621Q6.945172015441894,8.901427969116211,6.899675015441894,8.920273969116211Q6.854178015441894,8.939118969116212,6.805878115441894,8.94872696911621Q6.757578715441895,8.958333969116211,6.7083330154418945,8.958333969116211Q6.659087315441894,8.958333969116211,6.610787915441895,8.94872696911621Q6.562488015441895,8.939118969116212,6.516991015441895,8.920273969116211Q6.471494015441895,8.901427969116211,6.430548015441895,8.87406896911621Q6.389602015441895,8.84670896911621,6.354780015441895,8.81188696911621Q6.319958015441895,8.77706496911621,6.292598015441895,8.73611896911621Q6.265239015441894,8.69517296911621,6.246393015441894,8.649675969116212Q6.2275480154418945,8.60417896911621,6.2179400154418945,8.55587906911621Q6.2083330154418945,8.507579669116211,6.2083330154418945,8.458333969116211Q6.2083330154418945,8.40908826911621,6.2179400154418945,8.360788869116211Q6.2275480154418945,8.312488969116211,6.246393015441894,8.26699196911621Q6.265239015441894,8.221494969116211,6.292598015441895,8.180548969116211Q6.319958015441895,8.139602969116211,6.354780015441895,8.104780969116211Q6.389602015441895,8.069958969116211,6.430548015441895,8.042598969116211Q6.471494015441895,8.01523996911621,6.516991015441895,7.996393969116211Q6.562488015441895,7.977548969116211,6.610787915441895,7.967940969116211Q6.659087315441894,7.958333969116211,6.7083330154418945,7.958333969116211Q6.757578715441895,7.958333969116211,6.805878115441894,7.967940969116211Q6.854178015441894,7.977548969116211,6.899675015441894,7.996393969116211Q6.945172015441894,8.01523996911621,6.986118015441894,8.042598969116211Q7.027064015441894,8.069958969116211,7.061886015441894,8.104780969116211Q7.0967080154418944,8.139602969116211,7.124068015441894,8.180548969116211Q7.151427015441895,8.221494969116211,7.170273015441895,8.26699196911621Q7.1891180154418945,8.312488969116211,7.198726015441895,8.360788869116211Q7.2083330154418945,8.40908826911621,7.2083330154418945,8.458333969116211Z" fill="#FFFFFF" fill-opacity="1"/></g><g style="mix-blend-mode:passthrough"><path d="M9.041663015441895,11.875L6.7083330154418945,11.875Q6.659087315441894,11.875,6.610787915441895,11.865393Q6.562488015441895,11.855785000000001,6.516991015441895,11.83694Q6.471494015441895,11.818094,6.430548015441895,11.790735Q6.389602015441895,11.763375,6.354780015441895,11.728553Q6.319958015441895,11.693731,6.292598015441895,11.652785Q6.265239015441894,11.611839,6.246393015441894,11.566342Q6.2275480154418945,11.520845,6.2179400154418945,11.4725451Q6.2083330154418945,11.4242457,6.2083330154418945,11.375Q6.2083330154418945,11.3257543,6.2179400154418945,11.2774549Q6.2275480154418945,11.229155,6.246393015441894,11.183658Q6.265239015441894,11.138161,6.292598015441895,11.097215Q6.319958015441895,11.056269,6.354780015441895,11.021447Q6.389602015441895,10.986625,6.430548015441895,10.959265Q6.471494015441895,10.931906,6.516991015441895,10.91306Q6.562488015441895,10.894214999999999,6.610787915441895,10.884607Q6.659087315441894,10.875,6.7083330154418945,10.875L9.041663015441895,10.875Q9.090913015441895,10.875,9.139213015441895,10.884607Q9.187513015441894,10.894214999999999,9.233003015441895,10.91306Q9.278503015441895,10.931906,9.319453015441894,10.959265Q9.360393015441895,10.986625,9.395223015441895,11.021447Q9.430043015441894,11.056269,9.457403015441894,11.097215Q9.484763015441894,11.138161,9.503603015441895,11.183658Q9.522453015441894,11.229155,9.532063015441894,11.2774549Q9.541663015441895,11.3257543,9.541663015441895,11.375Q9.541663015441895,11.4242457,9.532063015441894,11.4725451Q9.522453015441894,11.520845,9.503603015441895,11.566342Q9.484763015441894,11.611839,9.457403015441894,11.652785Q9.430043015441894,11.693731,9.395223015441895,11.728553Q9.360393015441895,11.763375,9.319453015441894,11.790735Q9.278503015441895,11.818094,9.233003015441895,11.83694Q9.187513015441894,11.855785000000001,9.139213015441895,11.865393Q9.090913015441895,11.875,9.041663015441895,11.875ZM9.541663015441895,11.375Q9.541663015441895,11.4242457,9.532063015441894,11.4725451Q9.522453015441894,11.520845,9.503603015441895,11.566342Q9.484763015441894,11.611839,9.457403015441894,11.652785Q9.430043015441894,11.693731,9.395223015441895,11.728553Q9.360393015441895,11.763375,9.319453015441894,11.790735Q9.278503015441895,11.818094,9.233003015441895,11.83694Q9.187513015441894,11.855785000000001,9.139213015441895,11.865393Q9.090913015441895,11.875,9.041663015441895,11.875Q8.992423015441894,11.875,8.944123015441894,11.865393Q8.895823015441895,11.855785000000001,8.850323015441894,11.83694Q8.804823015441894,11.818094,8.763883015441895,11.790735Q8.722933015441894,11.763375,8.688113015441894,11.728553Q8.653293015441895,11.693731,8.625933015441895,11.652785Q8.598573015441895,11.611839,8.579723015441894,11.566342Q8.560883015441895,11.520845,8.551273015441895,11.4725451Q8.541663015441895,11.4242457,8.541663015441895,11.375Q8.541663015441895,11.3257543,8.551273015441895,11.2774549Q8.560883015441895,11.229155,8.579723015441894,11.183658Q8.598573015441895,11.138161,8.625933015441895,11.097215Q8.653293015441895,11.056269,8.688113015441894,11.021447Q8.722933015441894,10.986625,8.763883015441895,10.959265Q8.804823015441894,10.931906,8.850323015441894,10.91306Q8.895823015441895,10.894214999999999,8.944123015441894,10.884607Q8.992423015441894,10.875,9.041663015441895,10.875Q9.090913015441895,10.875,9.139213015441895,10.884607Q9.187513015441894,10.894214999999999,9.233003015441895,10.91306Q9.278503015441895,10.931906,9.319453015441894,10.959265Q9.360393015441895,10.986625,9.395223015441895,11.021447Q9.430043015441894,11.056269,9.457403015441894,11.097215Q9.484763015441894,11.138161,9.503603015441895,11.183658Q9.522453015441894,11.229155,9.532063015441894,11.2774549Q9.541663015441895,11.3257543,9.541663015441895,11.375ZM7.2083330154418945,11.375Q7.2083330154418945,11.4242457,7.198726015441895,11.4725451Q7.1891180154418945,11.520845,7.170273015441895,11.566342Q7.151427015441895,11.611839,7.124068015441894,11.652785Q7.0967080154418944,11.693731,7.061886015441894,11.728553Q7.027064015441894,11.763375,6.986118015441894,11.790735Q6.945172015441894,11.818094,6.899675015441894,11.83694Q6.854178015441894,11.855785000000001,6.805878115441894,11.865393Q6.757578715441895,11.875,6.7083330154418945,11.875Q6.659087315441894,11.875,6.610787915441895,11.865393Q6.562488015441895,11.855785000000001,6.516991015441895,11.83694Q6.471494015441895,11.818094,6.430548015441895,11.790735Q6.389602015441895,11.763375,6.354780015441895,11.728553Q6.319958015441895,11.693731,6.292598015441895,11.652785Q6.265239015441894,11.611839,6.246393015441894,11.566342Q6.2275480154418945,11.520845,6.2179400154418945,11.4725451Q6.2083330154418945,11.4242457,6.2083330154418945,11.375Q6.2083330154418945,11.3257543,6.2179400154418945,11.2774549Q6.2275480154418945,11.229155,6.246393015441894,11.183658Q6.265239015441894,11.138161,6.292598015441895,11.097215Q6.319958015441895,11.056269,6.354780015441895,11.021447Q6.389602015441895,10.986625,6.430548015441895,10.959265Q6.471494015441895,10.931906,6.516991015441895,10.91306Q6.562488015441895,10.894214999999999,6.610787915441895,10.884607Q6.659087315441894,10.875,6.7083330154418945,10.875Q6.757578715441895,10.875,6.805878115441894,10.884607Q6.854178015441894,10.894214999999999,6.899675015441894,10.91306Q6.945172015441894,10.931906,6.986118015441894,10.959265Q7.027064015441894,10.986625,7.061886015441894,11.021447Q7.0967080154418944,11.056269,7.124068015441894,11.097215Q7.151427015441895,11.138161,7.170273015441895,11.183658Q7.1891180154418945,11.229155,7.198726015441895,11.2774549Q7.2083330154418945,11.3257543,7.2083330154418945,11.375Z" fill="#FFFFFF" fill-opacity="1"/></g></g></svg>