<svg xmlns="http://www.w3.org/2000/svg" xmlns:xlink="http://www.w3.org/1999/xlink" fill="none" version="1.1" width="39" height="39" viewBox="0 0 39 39"><defs><clipPath id="master_svg0_721_23362"><rect x="0" y="0" width="39" height="39" rx="0"/></clipPath><linearGradient x1="0.1434108465909958" y1="-0.09090909361839294" x2="0.8524884581565857" y2="1.3366268873214722" id="master_svg1_8_4175"><stop offset="0%" stop-color="#A678FF" stop-opacity="1"/><stop offset="44.999995827674866%" stop-color="#915DFF" stop-opacity="1"/><stop offset="100.00002384185791%" stop-color="#7C3FFD" stop-opacity="1"/></linearGradient></defs><g clip-path="url(#master_svg0_721_23362)"><g><path d="M29,19.5Q29,19.73321,28.9886,19.96614Q28.9771,20.1991,28.9543,20.4312Q28.9314,20.6633,28.8972,20.893900000000002Q28.863,21.1246,28.8175,21.3534Q28.772,21.5821,28.7153,21.8083Q28.6586,22.0345,28.5909,22.2577Q28.5232,22.4809,28.4447,22.700499999999998Q28.3661,22.92,28.2769,23.1355Q28.1876,23.3509,28.0879,23.561799999999998Q27.9882,23.7726,27.8782,23.9783Q27.7683,24.1839,27.6484,24.384Q27.5285,24.584,27.399,24.777900000000002Q27.2694,24.9718,27.1305,25.159100000000002Q26.9915,25.3465,26.8436,25.526699999999998Q26.6956,25.707,26.539,25.8798Q26.3824,26.0526,26.2175,26.2175Q26.0526,26.3824,25.8798,26.539Q25.707,26.6956,25.526699999999998,26.8436Q25.3465,26.9915,25.159100000000002,27.1305Q24.9718,27.2694,24.777900000000002,27.399Q24.584,27.5285,24.384,27.6484Q24.1839,27.7683,23.9783,27.8783Q23.7726,27.9882,23.561799999999998,28.0879Q23.3509,28.1876,23.1355,28.2769Q22.92,28.3661,22.700499999999998,28.4447Q22.4809,28.5232,22.2577,28.5909Q22.0345,28.6586,21.8083,28.7153Q21.5821,28.772,21.3534,28.8175Q21.1246,28.863,20.893900000000002,28.8972Q20.6633,28.9314,20.4312,28.9543Q20.1991,28.9771,19.96614,28.9886Q19.73321,29,19.5,29Q19.26679,29,19.03386,28.9886Q18.80093,28.9771,18.56884,28.9543Q18.336750000000002,28.9314,18.10606,28.8972Q17.87537,28.863,17.646639999999998,28.8175Q17.41791,28.772,17.19169,28.7153Q16.96547,28.6586,16.7423,28.5909Q16.51913,28.5232,16.29955,28.4447Q16.07997,28.3661,15.86451,28.2769Q15.649049999999999,28.1876,15.43823,28.0879Q15.227409999999999,27.9882,15.02173,27.8782Q14.81606,27.7683,14.616019999999999,27.6484Q14.41599,27.5285,14.22208,27.399Q14.02817,27.2694,13.84086,27.1305Q13.65354,26.9915,13.47326,26.8436Q13.29299,26.6956,13.120190000000001,26.539Q12.94739,26.3824,12.78249,26.2175Q12.61758,26.0526,12.46096,25.8798Q12.30435,25.707,12.1564,25.526699999999998Q12.00845,25.3465,11.86953,25.159100000000002Q11.730599999999999,24.9718,11.60104,24.777900000000002Q11.47147,24.584,11.35158,24.384Q11.23168,24.1839,11.12175,23.9783Q11.01181,23.7726,10.912102,23.561799999999998Q10.812391,23.3509,10.723144,23.1355Q10.633898,22.92,10.555331,22.700499999999998Q10.476765,22.4809,10.409067,22.2577Q10.341369,22.0345,10.284703,21.8083Q10.228037,21.5821,10.18254,21.3534Q10.137042,21.1246,10.102823,20.893900000000002Q10.0686039,20.6633,10.0457451,20.4312Q10.0228863,20.1991,10.0114432,19.96614Q10,19.73321,10,19.5Q10,19.26679,10.0114432,19.03386Q10.0228863,18.80093,10.0457451,18.56884Q10.0686039,18.336750000000002,10.102823,18.10606Q10.137042,17.87537,10.18254,17.646639999999998Q10.228037,17.41791,10.284703,17.19169Q10.341369,16.96547,10.409067,16.7423Q10.476765,16.51913,10.555331,16.29955Q10.633898,16.07997,10.723144,15.86451Q10.812391,15.649049999999999,10.912102,15.43823Q11.01181,15.227409999999999,11.12175,15.02173Q11.23168,14.81606,11.35158,14.616019999999999Q11.47147,14.41599,11.60104,14.22208Q11.730599999999999,14.02817,11.86953,13.84086Q12.00845,13.65354,12.1564,13.47326Q12.30435,13.29299,12.46096,13.120190000000001Q12.61758,12.94739,12.78249,12.78249Q12.94739,12.61758,13.120190000000001,12.46096Q13.29299,12.30435,13.47326,12.1564Q13.65354,12.00845,13.84086,11.86953Q14.02817,11.730599999999999,14.22208,11.60104Q14.41599,11.47147,14.616019999999999,11.35158Q14.81606,11.23168,15.02173,11.12175Q15.227409999999999,11.01181,15.43823,10.912102Q15.649049999999999,10.812391,15.86451,10.723144Q16.07997,10.633898,16.29955,10.555331Q16.51913,10.476765,16.7423,10.409067Q16.96547,10.341369,17.19169,10.284703Q17.41791,10.228037,17.646639999999998,10.18254Q17.87537,10.137042,18.10606,10.102823Q18.336750000000002,10.0686039,18.56884,10.0457451Q18.80093,10.0228863,19.03386,10.0114432Q19.26679,10,19.5,10Q19.73321,10,19.96614,10.0114432Q20.1991,10.0228863,20.4312,10.0457451Q20.6633,10.0686039,20.893900000000002,10.102823Q21.1246,10.137042,21.3534,10.18254Q21.5821,10.228037,21.8083,10.284703Q22.0345,10.341369,22.2577,10.409067Q22.4809,10.476765,22.700499999999998,10.555331Q22.92,10.633898,23.1355,10.723144Q23.3509,10.812391,23.561799999999998,10.912102Q23.7726,11.01181,23.9783,11.12175Q24.1839,11.23168,24.384,11.35158Q24.584,11.47147,24.777900000000002,11.60104Q24.9718,11.730599999999999,25.159100000000002,11.86953Q25.3465,12.00845,25.526699999999998,12.1564Q25.707,12.30435,25.8798,12.46096Q26.0526,12.61758,26.2175,12.78249Q26.3824,12.94739,26.539,13.120190000000001Q26.6956,13.29299,26.8436,13.47326Q26.9915,13.65354,27.1305,13.84086Q27.2694,14.02817,27.399,14.22208Q27.5285,14.41599,27.6484,14.616019999999999Q27.7683,14.81606,27.8783,15.02173Q27.9882,15.227409999999999,28.0879,15.43823Q28.1876,15.649049999999999,28.2769,15.86451Q28.3661,16.07997,28.4447,16.29955Q28.5232,16.51913,28.5909,16.7423Q28.6586,16.96547,28.7153,17.19169Q28.772,17.41791,28.8175,17.646639999999998Q28.863,17.87537,28.8972,18.10606Q28.9314,18.336750000000002,28.9543,18.56884Q28.9771,18.80093,28.9886,19.03386Q29,19.26679,29,19.5Z" fill="url(#master_svg1_8_4175)" fill-opacity="1"/></g><g><path d="M9.262466796875,27.5435859375C7.556216796875,27.5435859375,6.337462796875,27.0560859375,5.606212796875,26.0810859375C4.874962796875,24.6185859375,6.093712796875,22.1810859375,8.774966796874999,19.4997859375L9.262466796875,19.4997859375C9.506216796875,19.7435859375,9.506216796875,19.7435859375,9.262466796875,19.987285937499998C6.824966796875,22.424785937499998,5.606212796875,24.3747859375,6.337462796875,25.5935859375C6.824966796875,26.5685859375,8.774966796874999,27.0560859375,11.699966796875,26.5685859375C14.624966796875,26.0810859375,18.281216796875,24.6185859375,21.693716796875,22.668585937499998C25.349916796875,20.718585937500002,28.274916796875,18.5248059375,30.468716796875,16.3310559375C32.418716796875,14.381055937500001,33.149916796875004,12.4310559375,32.662416796875,11.4560559375C31.931216796875,10.2373049375,29.249916796875,9.9935549375,25.349916796875,10.9685559375C25.106216796875,10.9685559375,24.862416796875,10.9685559375,24.862416796875,10.7248059375C24.862416796875,10.4810559375,24.862416796875,10.2373049375,25.106216796875,10.2373049375C29.493716796875,9.0185549375,32.418716796875,9.2623049375,33.149916796875004,10.9685559375C33.881216796875,12.1873059375,33.149916796875004,14.381055937500001,30.956216796875,16.5748059375C28.762416796875,18.7685559375,25.593716796875,21.2060859375,22.181216796875,23.156085937500002C18.524916796875,25.106085937499998,14.868716796875,26.5685859375,11.943716796875,27.0560859375C10.968716796875,27.2997859375,9.993716796874999,27.5435859375,9.262466796875,27.5435859375Z" fill="#23FFAA" fill-opacity="1"/><path d="M12.004346796875,27.2985859375Q10.024506796875,27.7935859375,9.262466796875,27.7935859375Q6.5780867968750005,27.7935859375,5.406213206875,26.2310859375L5.392687516875,26.2129859375L5.382606196875,26.1928859375Q4.783197796875,24.9940859375,5.686091796875,23.1380859375Q6.5415367968750004,21.3796859375,8.598186796875,19.3230259375L8.671406796875,19.2498059375L9.366016796875,19.2498059375L9.439236796875,19.3230259375Q9.695276796875,19.5790859375,9.695276796875,19.7435859375Q9.695276796875,19.908085937499997,9.439236796875,20.164085937499998Q5.646796796875,23.9564859375,6.5518367968749995,25.4648859375L6.556776796875,25.4731859375L6.561066796875,25.4817859375Q6.885556796875,26.1306859375,8.153676796875,26.3843859375Q9.576786796875,26.6689859375,11.658866796875,26.3219859375Q16.088316796875,25.5836859375,21.569716796875,22.4514859375L21.572816796875,22.4496859375L21.576116796875,22.4479859375Q26.766416796875,19.6797859375,30.291916796875,16.1542759375Q31.674716796875,14.7715259375,32.249816796874995,13.4294459375Q32.766716796875,12.2235259375,32.438816796875,11.5678559375L32.662416796875,11.4560559375L32.448116796875,11.5846759375Q31.958916796875,10.7694259375,30.176216796875,10.6389859375Q28.259916796875,10.4987659375,25.410616796875,11.2110859375L25.380716796875,11.2185559375L25.349916796875,11.2185559375Q24.612416796875,11.2185559375,24.612416796875,10.7248059375Q24.612416796875,10.4404859375,24.655716796875,10.3105909375Q24.763516796875,9.9873049375,25.106216796875,9.9873049375L25.106216796875,10.2373049375L25.039316796875,9.9964249375Q28.384816796875,9.0671229375,30.521316796875,9.2570369375Q32.774216796874995,9.4572994375,33.379716796875,10.8700759375L33.149916796875004,10.9685559375L33.364316796875,10.8399259375Q33.988916796875,11.8808759375,33.384016796875,13.4938359375Q32.780016796875,15.1045259375,31.133016796875,16.7515759375Q27.453116796875,20.4314859375,22.305216796875,23.3730859375L22.302116796875,23.3748859375L22.298816796875,23.3766859375Q16.279716796875,26.5867859375,11.984806796874999,27.3026859375L11.943716796875,27.0560859375L12.004346796875,27.2985859375ZM11.883076796874999,26.8134859375L11.892766796875,26.8110859375L11.902606796875,26.8094859375Q16.116716796875,26.1070859375,22.063516796875,22.935485937499998L22.181216796875,23.156085937500002L22.057216796875,22.9389859375Q27.146916796875,20.0305859375,30.779416796875,16.3980259375Q32.349916796875,14.8275559375,32.915916796874995,13.318275937500001Q33.436016796874995,11.931225937499999,32.935616796874996,11.0971759375L32.926816796875,11.0826259375L32.920216796874996,11.0670359375Q32.432416796875,9.9288819375,30.477016796875,9.7550729375Q28.431016796875,9.5732050375,25.173116796875,10.4781859375L25.140316796875,10.4873059375L25.106216796875,10.4873059375Q25.123916796875,10.4873059375,25.130116796875,10.4687059375Q25.112416796875,10.5216259375,25.112416796875,10.7248059375Q25.112416796875,10.7071159375,25.093816796875,10.7009159375Q25.146816796875,10.7185559375,25.349916796875,10.7185559375L25.349916796875,10.9685559375L25.289316796875,10.7260159375Q28.216416796875,9.9942449375,30.212716796875,10.1403149375Q32.254216796875,10.2896889375,32.876816796875005,11.3274259375L32.881816796875,11.3356659375L32.886116796875,11.3442459375Q33.317616796875,12.2073359375,32.709416796875004,13.6264059375Q32.096316796875,15.0569959375,30.645516796875,16.5078259375Q27.067416796875,20.0859859375,21.811316796875,22.889185937500002L21.693716796875,22.668585937499998L21.817716796875,22.8855859375Q16.258716796875,26.0621859375,11.741066796875,26.8151859375Q9.568596796875,27.1771859375,8.055616796875,26.8745859375Q6.547706796875,26.5730859375,6.113855796875,25.7053859375L6.337462796875,25.5935859375L6.123089796875,25.7221859375Q5.017196796875,23.878985937499998,9.085686796875,19.810485937499998Q9.182536796875,19.7136859375,9.204356796875,19.6863859375Q9.195276796875,19.6977859375,9.195276796875,19.7435859375Q9.195276796875,19.7893859375,9.204356796875,19.8006859375Q9.182536796875,19.773385937500002,9.085686796875,19.6765859375L9.262466796875,19.4997859375L9.262466796875,19.7497859375L8.774966796874999,19.7497859375L8.774966796874999,19.4997859375L8.951736796875,19.6765859375Q6.954436796875,21.6738859375,6.135708796875,23.3567859375Q5.340699596875,24.9909859375,5.829819796875,25.9692859375L5.606212796875,26.0810859375L5.806212796875,25.9310859375Q6.8280867968750005,27.2935859375,9.262466796875,27.2935859375Q9.962956796875,27.2935859375,11.883076796874999,26.8134859375Z" fill="#23FFAA" fill-opacity="1"/></g><g><path d="M26.81240234375,20.96259765625Q26.81240234375,21.04641765625,26.80418234375,21.12983765625Q26.79597234375,21.21325765625,26.77961234375,21.29546765625Q26.76326234375,21.37767765625,26.73893234375,21.45789765625Q26.714602343750002,21.53810765625,26.68252234375,21.61554765625Q26.65044234375,21.69299765625,26.61093234375,21.76691765625Q26.57141234375,21.84084765625,26.52484234375,21.91053765625Q26.47828234375,21.98023765625,26.425102343749998,22.04502765625Q26.37192234375,22.10982765625,26.31265234375,22.16909765625Q26.25338234375,22.22836765625,26.18858234375,22.281547656249998Q26.12379234375,22.33472765625,26.05409234375,22.38128765625Q25.98440234375,22.42785765625,25.91047234375,22.46737765625Q25.83655234375,22.50688765625,25.75910234375,22.53896765625Q25.68166234375,22.571047656250002,25.60145234375,22.59537765625Q25.52123234375,22.61970765625,25.43902234375,22.63605765625Q25.35681234375,22.65241765625,25.27339234375,22.66062765625Q25.18997234375,22.66884765625,25.10615234375,22.66884765625Q25.02233234375,22.66884765625,24.93891234375,22.66062765625Q24.85549234375,22.65241765625,24.77328234375,22.63605765625Q24.69106234375,22.61970765625,24.61085234375,22.59537765625Q24.53064234375,22.571047656250002,24.45320234375,22.53896765625Q24.375756343749998,22.50688765625,24.30183134375,22.46737765625Q24.22790634375,22.42785765625,24.15821034375,22.38128765625Q24.08851434375,22.33472765625,24.02371834375,22.281547656249998Q23.95892334375,22.22836765625,23.89965134375,22.16909765625Q23.84037934375,22.10982765625,23.78720334375,22.04502765625Q23.73402634375,21.98023765625,23.68745734375,21.91053765625Q23.64088834375,21.84084765625,23.60137434375,21.76691765625Q23.56186034375,21.69299765625,23.52978334375,21.61554765625Q23.49770534375,21.53810765625,23.47337284375,21.45789765625Q23.44904044375,21.37767765625,23.43268744375,21.29546765625Q23.41633444375,21.21325765625,23.40811840375,21.12983765625Q23.39990234375,21.04641765625,23.39990234375,20.96259765625Q23.39990234375,20.87877765625,23.40811840375,20.79535765625Q23.41633444375,20.71193765625,23.43268744375,20.62972765625Q23.44904044375,20.54750765625,23.47337284375,20.46729765625Q23.49770534375,20.38708765625,23.52978334375,20.30964765625Q23.56186034375,20.232201656249998,23.60137434375,20.15827665625Q23.64088834375,20.08435165625,23.68745734375,20.01465565625Q23.73402634375,19.94495965625,23.78720334375,19.88016365625Q23.84037934375,19.81536865625,23.89965134375,19.75609665625Q23.95892334375,19.69682465625,24.02371834375,19.64364865625Q24.08851434375,19.59047165625,24.15821034375,19.54390265625Q24.22790634375,19.49733365625,24.30183134375,19.45781965625Q24.375756343749998,19.41830565625,24.45320234375,19.38622865625Q24.53064234375,19.35415065625,24.61085234375,19.32981815625Q24.69106234375,19.30548575625,24.77328234375,19.28913275625Q24.85549234375,19.27277975625,24.93891234375,19.26456371625Q25.02233234375,19.25634765625,25.10615234375,19.25634765625Q25.18997234375,19.25634765625,25.27339234375,19.26456371625Q25.35681234375,19.27277975625,25.43902234375,19.28913275625Q25.52123234375,19.30548575625,25.60145234375,19.32981815625Q25.68166234375,19.35415065625,25.75910234375,19.38622865625Q25.83655234375,19.41830565625,25.91047234375,19.45781965625Q25.98440234375,19.49733365625,26.05409234375,19.54390265625Q26.12379234375,19.59047165625,26.18858234375,19.64364865625Q26.25338234375,19.69682465625,26.31265234375,19.75609665625Q26.37192234375,19.81536865625,26.425102343749998,19.88016365625Q26.47828234375,19.94495965625,26.52484234375,20.01465565625Q26.57141234375,20.08435165625,26.61093234375,20.15827665625Q26.65044234375,20.232201656249998,26.68252234375,20.30964765625Q26.714602343750002,20.38708765625,26.73893234375,20.46729765625Q26.76326234375,20.54750765625,26.77961234375,20.62972765625Q26.79597234375,20.71193765625,26.80418234375,20.79535765625Q26.81240234375,20.87877765625,26.81240234375,20.96259765625Z" fill="#23FFAA" fill-opacity="1"/></g><g transform="matrix(-1,0,0,1,52.70263671875,0)"><path d="M28.077528359375002,3.436854296875L29.730718359375,2.108154296875L29.482448359375,4.216964296875L30.567538359375,5.792604296875L28.664618359374998,5.314164296875L27.223185359375,6.324374296875L27.649628359375,4.712244296874999L26.351318359375,3.153434296875L28.077528359375002,3.436854296875Z" fill="#FFFB23" fill-opacity="1"/></g><g transform="matrix(-1,0,0,1,12.269287109375,0)"><path d="M7.3510235546875,14.67658371875L8.516803554687499,13.70263671875L8.3418335546875,15.24787671875L9.1070735546875,16.40522671875L7.7642135546875,16.05528671875L6.7502105546875,16.79522671875L7.0495615546875,15.61258671875L6.1346435546875,14.46787971875L7.3510235546875,14.67658371875Z" fill="#FFA750" fill-opacity="1"/></g><g transform="matrix(-1,0,0,1,67.079833984375,0)"><path d="M34.7562969921875,27.327373359375L35.9241869921875,26.351318359375L35.7471069921875,27.898668359375L36.5123469921875,29.056018359375L35.1715969921875,28.703968359375L34.1554839921875,29.446018359375L34.4569439921875,28.261268359375L33.5399169921875,27.118672359375L34.7562969921875,27.327373359375Z" fill="#FFFB23" fill-opacity="1"/></g><g style="mix-blend-mode:passthrough"><ellipse cx="20" cy="14" rx="1" ry="1" fill="#FFFB23" fill-opacity="1"/></g></g></svg>