<svg xmlns="http://www.w3.org/2000/svg" xmlns:xlink="http://www.w3.org/1999/xlink" fill="none" version="1.1" width="30" height="30.000001907348633" viewBox="0 0 30 30.000001907348633"><defs><clipPath id="master_svg0_152_10059"><rect x="0" y="0" width="30" height="30.000001907348633" rx="0"/></clipPath></defs><g clip-path="url(#master_svg0_152_10059)"><g><path d="M15.00003125,0.64453125C7.07168125,0.64453125,0.64453125,7.07168125,0.64453125,15.00003125C0.64453125,22.92833125,7.07168125,29.35543125,15.00003125,29.35543125C22.92833125,29.35543125,29.35543125,22.92833125,29.35543125,15.00003125C29.35543125,7.07168125,22.92833125,0.64453125,15.00003125,0.64453125ZM20.80433125,16.50443125L15.70953125,21.59943125C15.68673125,21.62873125,15.66243125,21.65713125,15.63543125,21.68383125C15.45993125,21.85923125,15.23003125,21.94603125,15.00003125,21.94483125C14.77033125,21.94633125,14.54003125,21.85923125,14.36453125,21.68383125C14.33763125,21.65683125,14.31303125,21.62873125,14.29043125,21.59943125L9.19570125,16.50473125C8.84765125,16.15663125,8.84765125,15.59243125,9.19570125,15.24433125C9.54375125,14.89633125,10.10801125,14.89633125,10.45635125,15.24433125L14.10883125,18.89653125L14.10883125,8.94639125C14.10883125,8.45420125,14.50783125,8.05518125,15.00003125,8.05518125C15.49223125,8.05518125,15.89123125,8.45420125,15.89123125,8.94639125L15.89123125,18.89653125L19.54393125,15.24403125C19.89203125,14.89603125,20.45623125,14.89603125,20.80463125,15.24403125C21.15263125,15.59213125,21.15263125,16.15633125,20.80433125,16.50443125Z" fill="#FFFFFF" fill-opacity="1"/></g></g></svg>