<svg xmlns="http://www.w3.org/2000/svg" xmlns:xlink="http://www.w3.org/1999/xlink" fill="none" version="1.1" width="13.33314037322998" height="12.000626564025879" viewBox="0 0 13.33314037322998 12.000626564025879"><g><path d="M9.13174,0.0430638C10.2511,-0.130269,11.3021,0.222397,12.1527,1.0514C13.0171,1.89406,13.4314,3.0044,13.3134,4.16906C13.1967,5.31973,12.5861,6.45607,11.5584,7.45773C11.2717,7.7374,10.5011,8.4924,9.39508,9.57707C8.89774,10.0651,8.36841,10.5841,7.83507,11.1081L7.31641,11.6167L7.11041,11.8191C6.86391,12.0611,6.46891,12.0611,6.22241,11.8191L4.43174,10.0591L4.05341,9.6884Q2.91352,8.57331,1.77441,7.45773C0.746742,6.45606,0.136409,5.32006,0.0197421,4.16906C-0.0982579,3.0044,0.315742,1.89406,1.18041,1.0514C2.03108,0.222398,3.08208,-0.129936,4.20141,0.043064C5.03208,0.171397,5.87474,0.585064,6.66674,1.2454C7.45908,0.585397,8.30141,0.171397,9.13208,0.043064L9.13174,0.0430638Z" fill="#FFFFFF" fill-opacity="1"/></g></svg>