<svg xmlns="http://www.w3.org/2000/svg" xmlns:xlink="http://www.w3.org/1999/xlink" fill="none" version="1.1" width="30" height="30.000001907348633" viewBox="0 0 30 30.000001907348633"><defs><clipPath id="master_svg0_138_20825/67_10002"><rect x="0" y="0" width="30" height="30.000001907348633" rx="0"/></clipPath></defs><g clip-path="url(#master_svg0_138_20825/67_10002)"><g><path d="M17.93262904296875,22.485424453125L17.48438904296875,22.485424453125L15.454119042968749,24.515664453124998C15.313489042968751,24.656364453125,15.12305904296875,24.735464453124997,14.923839042968751,24.735464453124997C14.72462904296875,24.735464453124997,14.534199042968751,24.656364453125,14.39356904296875,24.515664453124998L12.146499042968749,22.265704453125C11.704119042968749,21.823314453125,11.92969904296875,20.967854453125,12.82325904296875,20.944414453125C12.88770904296875,20.941484453125,12.981459042968751,20.979564453125,13.02833904296875,21.026444453125002L14.92676904296875,22.924884453125L14.92969904296875,22.924884453125L16.649429042968748,21.205154453124997C16.79005904296875,21.064524453125,16.98047904296875,20.985424453125,17.17969904296875,20.985424453125L17.938489042968747,20.985424453125M10.06934904296875,15.278394453125C9.22267104296875,15.278394453125,8.589859042968751,14.335034453125001,9.16700704296875,13.444411453125C9.21681204296875,13.368240453125,9.28419504296875,13.300857453125,9.36036604296875,13.251052453125C10.250989042968751,12.673904453125001,11.19434904296875,13.306716453125,11.19434904296875,14.153394453125C11.19434904296875,14.774494453125,10.68751904296875,15.278394453125,10.06934904296875,15.278394453125ZM15.15528904296875,15.278394453125C14.308609042968751,15.278394453125,13.67579904296875,14.337964453125,14.252949042968751,13.444411453125C14.302749042968749,13.368240453125,14.370129042968749,13.300857453125,14.44630904296875,13.251052453125C15.33692904296875,12.673904453125001,16.28028904296875,13.306716453125,16.28028904296875,14.153394453125C16.28028904296875,14.774494453125,15.77344904296875,15.278394453125,15.15528904296875,15.278394453125ZM20.24121904296875,15.278394453125C19.39451904296875,15.278394453125,18.76172904296875,14.335034453125001,19.338919042968747,13.444411453125C19.388719042968752,13.368240453125,19.45611904296875,13.300857453125,19.532219042968748,13.251052453125C20.42281904296875,12.673904453125001,21.36621904296875,13.306716453125,21.36621904296875,14.153394453125C21.36621904296875,14.774494453125,20.85941904296875,15.278394453125,20.24121904296875,15.278394453125Z" fill="#6D6A71" fill-opacity="1"/></g><g><path d="M22.705096875,22.5673859375L17.431596875,22.5673859375C16.945296875,22.5673859375,16.552696875000002,22.1747859375,16.552696875000002,21.6884859375C16.552696875000002,21.202185937499998,16.945296875,20.8095859375,17.431596875,20.8095859375L22.705096875,20.8095859375C23.188496875,20.8095859375,23.583996875,20.414085937499998,23.583996875,19.9306859375L23.583996875,8.2998059375C23.583996875,7.8164059375,23.188496875,7.4208959375,22.705096875,7.4208959375L7.353516875,7.4208959375C6.870116875,7.4208959375,6.474606875,7.8164059375,6.474606875,8.2998059375L6.474606875,19.9306859375C6.474606875,20.414085937499998,6.870116875,20.8095859375,7.353516875,20.8095859375L12.480466875000001,20.8095859375C12.966796875,20.8095859375,13.359376875,21.202185937499998,13.359376875,21.6884859375C13.359376875,22.1747859375,12.966796875,22.5673859375,12.480466875000001,22.5673859375L7.353516875,22.5673859375C5.900386875,22.5673859375,4.716796875,21.3837859375,4.716796875,19.9306859375L4.716796875,8.2998059375C4.716796875,6.8466759375,5.900386875,5.6630859375,7.353516875,5.6630859375L22.705096875,5.6630859375C24.158196875,5.6630859375,25.341796875,6.8466759375,25.341796875,8.2998059375L25.341796875,19.9306859375C25.341796875,21.386685937499998,24.158196875,22.5673859375,22.705096875,22.5673859375Z" fill="#6D6A71" fill-opacity="1"/></g></g></svg>