<svg xmlns="http://www.w3.org/2000/svg" xmlns:xlink="http://www.w3.org/1999/xlink" fill="none" version="1.1" width="16" height="16" viewBox="0 0 16 16"><defs><clipPath id="master_svg0_26_4212"><rect x="0" y="0" width="16" height="16" rx="0"/></clipPath></defs><g clip-path="url(#master_svg0_26_4212)"><g><path d="M8.015285625,0.1962047328125C8.015555625000001,0.1877707128125,8.008785625,0.1807861328125,8.000355625000001,0.1807861328125C7.991915625,0.1807861328125,7.985145625,0.1877708028125,7.985425625,0.1962047328125C7.985865625,0.2041234328125,7.992415625,0.2103157328125,8.000355625000001,0.2103157328125C8.008285625,0.2103157328125,8.014835625,0.2041234328125,8.015285625,0.1962047328125ZM7.995495625,0.5942981328125C4.575265625,0.5942981328125,1.791015625,3.4535161328125,1.791015625,6.9668261328125C1.791015625,11.2349861328125,7.455205625,15.3299861328125,7.695605625,15.4927861328125C7.875105625,15.6205861328125,8.115865625,15.6205861328125,8.295355625,15.4927861328125C8.535825625000001,15.3299861328125,14.199915625,11.2349861328125,14.199915625,6.9668261328125C14.199915625,3.4535161328125,11.415715625,0.5942991328125,7.995495625,0.5942981328125ZM7.995495625,14.4251861328125C6.850265625,13.5383861328125,2.8250956250000003,10.1931861328125,2.8250956250000003,6.9668161328125C2.8250956250000003,4.0222361328125,5.151735625000001,1.6283461328125,7.995495625,1.6283461328125C10.839265625,1.6283461328125,13.165915625,4.0222461328125,13.165915625,6.9668161328125C13.165915625,10.1879861328125,9.140735625,13.5383861328125,7.995495625,14.4251861328125Z" fill="#23FFAA" fill-opacity="1"/><path d="M13.315915625,6.9668161328125Q13.315915625,9.0926561328125,11.124405625,11.6685861328125Q9.819215625,13.2026861328125,8.087335625,14.5437861328125L7.995495625,14.6148861328125L7.903665625,14.5437861328125Q6.168735625,13.2003861328125,4.866605625,11.6705861328125Q2.675094625,9.0958261328125,2.675093625,6.9668061328125Q2.675093625,4.6990461328125,4.236195625000001,3.0889461328125Q5.797775625,1.4783461328125,7.995495625,1.4783461328125Q10.193225625,1.4783461328125,11.754805625,3.0889561328125Q13.315915625,4.6990561328125,13.315915625,6.9668161328125ZM13.015915625,6.9668161328125Q13.015915625,4.8206161328125,11.539415625,3.2977861328125Q10.066235625,1.7783461328125,7.995495625,1.7783461328125Q5.924765625,1.7783461328125,4.451575625,3.2977761328125Q2.975095625,4.8206061328125,2.975095625,6.9668061328125Q2.975085625,8.9854461328125,5.0950556250000005,11.4760861328125Q6.377015625,12.9822861328125,8.087335625,14.3065861328125L7.995495625,14.4251861328125L7.903665625,14.3065861328125Q9.610905625000001,12.9845861328125,10.895915625,11.4741861328125Q13.015915625,8.9822961328125,13.015915625,6.9668161328125ZM14.049915625,6.9668261328125Q14.049915625,4.3928761328125,12.272815625,2.5677161328125Q10.497425625,0.7442971328125,7.995495625,0.7442991328125Q5.493555625,0.7442981328125,3.718145625,2.5677161328125Q1.941017625,4.3928861328125,1.941015625,6.9668261328125Q1.941015625,9.5885361328125,4.763735625,12.6679861328125Q5.6704856249999995,13.6571861328125,6.767955625,14.5771861328125Q7.427215625,15.1298861328125,7.779735625,15.3686861328125L7.781185625,15.3695861328125L7.782605625,15.3706861328125Q7.995485625,15.5221861328125,8.208355625,15.3706861328125L8.209795625,15.3695861328125L8.211255625,15.3685861328125Q8.563515625,15.1300861328125,9.223035625,14.5771861328125Q10.320505625,13.6571861328125,11.227245625,12.6679861328125Q14.049915625,9.5885361328125,14.049915625,6.9668261328125L14.049915625,6.9668261328125ZM14.349915625,6.9668261328125Q14.349915625,9.7052261328125,11.448395625,12.8706861328125Q10.528335625,13.8744861328125,9.415765624999999,14.8070861328125Q8.744455625,15.3698861328125,8.379465625,15.6169861328125L8.295355625,15.4927861328125L8.382355624999999,15.6149861328125Q7.995485625,15.8904861328125,7.608605625,15.6149861328125L7.695605625,15.4927861328125L7.611485625,15.6169861328125Q7.246245625,15.3695861328125,6.575235625,14.8070861328125Q5.462645625,13.8743861328125,4.542585625,12.8706861328125Q1.641015625,9.7052261328125,1.641015625,6.9668261328125Q1.641013625,4.2709561328125,3.503195625,2.3584261328125Q5.366935625,0.4442981328125,7.995495625,0.4442991328125Q10.624035625,0.4442981328125,12.487815625,2.3584261328125Q14.349915625,4.2709461328125,14.349915625,6.9668261328125L14.349915625,6.9668261328125ZM8.000355625000001,0.060316132812500006Q7.872705625,0.060316132812500006,7.865515625,0.1877637628125L8.015285625,0.1962047328125L7.865355625,0.1913733328125Q7.863515625,0.2485656328125,7.903325625,0.2896751328125Q7.943125625,0.3307861328125,8.000355625000001,0.3307861328125Q8.057575625,0.3307861328125,8.097375625,0.2896781328125Q8.137185625,0.24857233281250002,8.135345625,0.1913817328125L7.985425625,0.1962047328125L8.135185625,0.1877546728125Q8.127995625,0.060316132812500006,8.000355625000001,0.060316132812500006ZM8.000355625000001,0.36031613281249997Q7.844445625,0.36031613281249997,7.835655625,0.2046548328125L7.835555625,0.2028422328125L7.835495625,0.2010277328125Q7.833255625,0.1311861328125,7.881865625,0.0809869328125Q7.930475625,0.030786132812500006,8.000355625000001,0.030786132812500006Q8.070235624999999,0.030786132812500006,8.118845624999999,0.0809902328125Q8.167455624999999,0.1311930328125,8.165205624999999,0.2010361328125L8.165145625000001,0.20284193281250001L8.165045625000001,0.2046457328125Q8.156265625,0.36031613281249997,8.000355625000001,0.36031613281249997Z" fill="#131217" fill-opacity="1"/></g><g><path d="M7.995559375,4.1981472783125C6.870189375,4.1718661953125,5.840954375,4.8295536953125,5.391969375,5.8617676953124995C4.942969375,6.8940576953125,5.163626095,8.0953676953125,5.950141375,8.900627695312501C6.736629375,9.7059476953125,7.9324393749999995,9.9549476953125,8.974989375,9.530377695312499C10.017599375,9.1059776953125,10.699419375,8.0925076953125,10.699719375,6.9668376953125C10.715499375,5.4564476953125,9.505969375,4.2179281953125,7.995559375,4.1981472783125ZM7.995559375,8.7014776953125C7.288659375,8.727917695312499,6.636589375,8.322317695312499,6.347599375,7.6766676953125C6.058626375,7.030987695312501,6.1906993749999994,6.274557695312501,6.681249375,5.7649776953125C7.171879375,5.2554176953125005,7.922809375,5.0946936953125,8.578989374999999,5.3589776953125C9.235159375,5.6232376953125005,9.665109375,6.2594576953125,9.665579375,6.9668476953125005C9.680019375,7.9053176953125,8.933859375,8.679147695312501,7.995559375,8.6989476953125L7.995559375,8.7014776953125Z" fill="#23FFAA" fill-opacity="1"/><path d="M8.195559375,8.6989076953125L8.195599375,8.8941376953125L8.003039375,8.901337695312499Q7.411739375,8.9234476953125,6.909239375,8.6109376953125Q6.406799375,8.2984676953125,6.165049375,7.7583676953125Q5.923335375,7.2182876953125,6.025083375,6.6353976953125Q6.126824375,6.0525276953125005,6.537159375,5.6262676953124995Q6.947579375,5.2000076953125,7.5261893749999995,5.0762106953125Q8.104849375,4.9523986953125,8.653709375,5.1734576953125Q9.202569375,5.3945076953125,9.533879375,5.8847576953125Q9.865189375,6.3750076953125,9.865579375,6.9667176953125Q9.877649375,7.7501176953125,9.331819375,8.316217695312499Q8.785999375,8.8823076953125,7.999779375,8.898897695312499L7.995559375,8.6989476953125L8.195559375,8.6989076953125ZM7.795559375,8.6989776953125L7.795529375,8.5031176953125L7.991339375,8.4989876953125Q8.612589375,8.4858776953125,9.043869375,8.038577695312501Q9.475159375,7.591267695312499,9.465579375,6.9669876953125005Q9.465269375,6.4976076953124995,9.202459375,6.1087276953125Q8.939659375,5.7198376953125,8.504269375,5.5444976953125Q8.068899375,5.3691476953125,7.609879375,5.4673576953125Q7.150889375,5.5655676953125,6.825339375,5.9036776953125Q6.499829375,6.2418176953125,6.419129375,6.7041776953125005Q6.3384093749999995,7.1665576953125,6.530139375,7.5949576953125Q6.721919375,8.0233976953125,7.120489375,8.271267695312499Q7.5190793750000005,8.5191576953125,7.9880893749999995,8.5016176953125L7.995559375,8.7014776953125L7.795559375,8.7015176953125L7.795559375,8.6989776953125ZM10.499729375000001,6.9647476953125Q10.510699375,5.9146076953125,9.776879375,5.1632546953125Q9.043039375,4.4118826953125,7.992939375000001,4.3981296953125Q7.207839375,4.3798056953125,6.547809375,4.8015546953125Q5.8877883749999995,5.2232976953125,5.575371375,5.9415476953125Q5.262946375,6.6598276953125,5.404446375,7.430197695312501Q5.545946375,8.2005676953125,6.093219375,8.760887695312501Q6.640489375,9.3212576953125,7.4073093750000005,9.4809076953125Q8.174139375,9.6405676953125,8.899549375,9.3451476953125Q9.625039375,9.0498276953125,10.062279375,8.399937695312499Q10.499509374999999,7.7500576953125,10.499719375,6.9667776953125L10.499729375000001,6.9647476953125ZM10.899719375,6.9668876953125Q10.899479375,7.8721376953124995,10.394159375000001,8.6232276953125Q9.888829375,9.3743276953125,9.050419375,9.7156076953125Q8.212029375,10.057027695312499,7.325769375,9.8725076953125Q6.439539375,9.6879976953125,5.8070643749999995,9.0403776953125Q5.174563075,8.392797695312499,5.011028375,7.5024676953125Q4.847493375,6.6121376953125,5.208568275,5.7819976953125Q5.569634375,4.9519036953125,6.332429375,4.4644906953125Q7.095239375,3.9770676953125,7.998179374999999,3.9981646953125Q9.213649375,4.0140826953125,10.063039374999999,4.8837706953125Q10.912409375,5.7534276953125,10.899709375,6.9689276953125L10.899719375,6.9668876953125Z" fill="#131217" fill-opacity="1"/></g></g></svg>