<svg xmlns="http://www.w3.org/2000/svg" xmlns:xlink="http://www.w3.org/1999/xlink" fill="none" version="1.1" width="20.617095947265625" height="23.26433563232422" viewBox="0 0 20.617095947265625 23.26433563232422"><g><path d="M17.5731,4.67524L15.2351,4.67524C15.2142,4.61624,15.1929,4.55718,15.171,4.49809C14.1422,1.71897,12.4577,0.25,10.2995,0.25C8.14241,0.25,6.45161,1.71829,5.40997,4.49609C5.38755,4.55585,5.36572,4.61559,5.34437,4.67527L3.04404,4.67527C1.50342,4.67527,0.25,5.92866,0.25,7.46931L0.25,20.2203C0.25,21.7609,1.50339,23.0143,3.04404,23.0143L17.5731,23.0143C19.1137,23.0143,20.3671,21.7609,20.3671,20.2203L20.3671,7.46928C20.3671,5.92866,19.1137,4.67524,17.5731,4.67524ZM10.2995,1.26599C12.2982,1.26599,13.4699,2.92974,14.1492,4.67524L6.43191,4.67524C7.12,2.92956,8.3002,1.26599,10.2995,1.26599ZM19.3511,20.2203C19.3511,21.2007,18.5535,21.9983,17.5731,21.9983L3.04407,21.9983C2.06365,21.9983,1.26604,21.2007,1.26604,20.2203L1.26604,7.46928C1.26604,6.48886,2.06365,5.69126,3.04407,5.69126L5.02416,5.69126C4.77717,6.58695,4.64115,7.39339,4.56988,7.92073C4.19893,8.08577,3.94017,8.45729,3.94017,8.88945C3.94017,9.47489,4.41477,9.94951,5.00023,9.94951C5.58566,9.94951,6.06029,9.47492,6.06029,8.88945C6.06029,8.52056,5.87173,8.19578,5.58587,8.00592C5.66317,7.45782,5.81267,6.60664,6.08393,5.69126L14.4922,5.69126C14.7574,6.6016,14.9026,7.44826,14.9774,7.9961C14.683,8.18445,14.4877,8.51403,14.4877,8.88948C14.4877,9.47492,14.9623,9.94954,15.5477,9.94954C16.133200000000002,9.94954,16.6078,9.47494,16.6078,8.88948C16.6078,8.4641,16.3571,8.09743,15.9955,7.92862C15.9269,7.40095,15.7945,6.591,15.5506,5.69126L17.5731,5.69126C18.5535,5.69126,19.3511,6.48886,19.3511,7.46928L19.3511,20.2203Z" fill="#6D6A71" fill-opacity="1"/><path d="M19.6011,7.46928L19.6011,20.2203Q19.6011,21.0591,19.0065,21.6537Q18.4119,22.2483,17.5731,22.2483L3.04407,22.2483Q2.20521,22.2483,1.61062,21.6537Q1.016041,21.0591,1.0160420000000001,20.2203L1.0160420000000001,7.46928Q1.0160420000000001,6.63041,1.61062,6.03584Q2.2052,5.44126,3.04407,5.44126L5.35243,5.44126L5.26517,5.75771Q4.96965,6.82937,4.81763,7.95421L4.79895,8.09244L4.67151,8.14914Q4.19017,8.36329,4.19017,8.88945Q4.19017,9.22499,4.42743,9.46225Q4.66469,9.69951,5.00023,9.69951Q5.33576,9.69951,5.57302,9.46225Q5.81029,9.22499,5.81029,8.88945Q5.81029,8.45508,5.44756,8.214179999999999L5.31632,8.12701L5.33832,7.97101Q5.5115,6.74307,5.84423,5.62023L5.89727,5.44126L14.6797,5.44126L14.7322,5.62133Q15.058,6.73961,15.2251,7.96224L15.2468,8.12058L15.1122,8.2067Q14.7377,8.44625,14.7377,8.88948Q14.7377,9.22501,14.9749,9.46227Q15.2122,9.69954,15.5477,9.69954Q15.8833,9.69954,16.1205,9.46228Q16.3578,9.22502,16.3578,8.88948Q16.3578,8.37365,15.8898,8.15516L15.7653,8.09705L15.7476,7.96085Q15.6009,6.83221,15.3093,5.75667L15.2238,5.44126L17.5731,5.44126Q18.412,5.44126,19.0065,6.03583Q19.6011,6.63042,19.6011,7.46928L19.6011,7.46928ZM19.1011,7.46928Q19.1011,6.83753,18.653,6.38939Q18.2049,5.94126,17.5731,5.94126L15.5506,5.94126L15.5506,5.69126L15.7919,5.62584Q16.0923,6.73412,16.2434,7.8964L15.9955,7.92862L16.101300000000002,7.7021Q16.8578,8.05527,16.8578,8.88948Q16.8578,9.43213,16.4741,9.81583Q16.090400000000002,10.19954,15.5477,10.19954Q15.0051,10.19954,14.6214,9.81582Q14.2377,9.43211,14.2377,8.88948Q14.2377,8.172550000000001,14.8427,7.7855L14.9774,7.9961L14.7297,8.029959999999999Q14.5676,6.84397,14.2522,5.76119L14.4922,5.69126L14.4922,5.94126L6.08393,5.94126L6.08393,5.69126L6.32363,5.76228Q6.00142,6.84959,5.83342,8.04084L5.58587,8.00592L5.72418,7.79767Q6.31029,8.18693,6.31029,8.88945Q6.31028,9.4321,5.92657,9.81581Q5.54286,10.19951,5.00023,10.19951Q4.45759,10.19951,4.07388,9.8158Q3.69017,9.43209,3.69017,8.88945Q3.69017,8.03849,4.46826,7.69231L4.56988,7.92073L4.32214,7.88724Q4.47868,6.72897,4.78316,5.6248L5.02416,5.69126L5.02416,5.94126L3.04407,5.94126Q2.41231,5.94126,1.96417,6.38939Q1.51604,6.83752,1.51604,7.46928L1.51604,20.2203Q1.51604,20.852,1.96418,21.3002Q2.41231,21.7483,3.04407,21.7483L17.5731,21.7483Q18.2048,21.7483,18.653,21.3001Q19.1011,20.852,19.1011,20.2203L19.1011,7.46928L19.1011,7.46928ZM6.19933,4.58356Q7.60555,1.015991,10.2995,1.0159880000000001Q12.9934,1.015989,14.3822,4.58457L14.5148,4.92524L6.06465,4.92524L6.19933,4.58356ZM6.6645,4.76692L6.43191,4.67524L6.43191,4.42524L14.1492,4.42524L14.1492,4.67524L13.9162,4.76591Q12.6515,1.51599,10.2995,1.51599Q7.94591,1.51599,6.6645,4.76692ZM20.1171,7.46928Q20.1171,6.41736,19.3711,5.6713Q18.625,4.92524,17.5731,4.92524L15.0596,4.92524L14.9359,4.5831Q13.4244,0.499992,10.2995,0.5Q7.17544,0.5,5.64405,4.58387L5.51906,4.92527L3.04404,4.92527Q1.99212,4.92527,1.246062,5.67132Q0.5,6.41738,0.5,7.46931L0.5,20.2203Q0.5,21.2722,1.2460529999999999,22.0183Q1.99211,22.7643,3.04404,22.7643L17.5731,22.7643Q18.625,22.7643,19.371,22.0183Q20.1171,21.2722,20.1171,20.2203L20.1171,7.46928L20.1171,7.46928ZM20.6171,7.46928L20.6171,20.2203Q20.6171,21.4793,19.7246,22.3718Q18.8321,23.2643,17.5731,23.2643L3.04404,23.2643Q1.785,23.2643,0.8925,22.3718Q0,21.4793,0,20.2203L0,7.46931Q0,6.21027,0.89251,5.31777Q1.78502,4.42527,3.04404,4.42527L5.34437,4.42527L5.34437,4.67527L5.10961,4.58931L5.17589,4.40832Q6.82893,0,10.2995,0Q13.7725,0,15.4061,4.41309L15.4702,4.59024L15.2351,4.67524L15.2351,4.42524L17.5731,4.42524Q18.8321,4.42524,19.7246,5.31775Q20.6171,6.21026,20.6171,7.46929L20.6171,7.46928Z" fill="#6D6A71" fill-opacity="1"/></g></svg>