<svg xmlns="http://www.w3.org/2000/svg" xmlns:xlink="http://www.w3.org/1999/xlink" fill="none" version="1.1" width="26" height="26.000001907348633" viewBox="0 0 26 26.000001907348633"><defs><clipPath id="master_svg0_138_20825/67_10005"><rect x="0" y="0" width="26" height="26.000001907348633" rx="0"/></clipPath></defs><g clip-path="url(#master_svg0_138_20825/67_10005)"><g><path d="M20.282084375,6.05463453125L17.944084375,6.05463453125C17.923184374999998,5.99563453125,17.901884375,5.93657453125,17.879984375,5.87748453125C16.851184375000003,3.09836453125,15.166684375,1.62939453125,13.008484375,1.62939453125C10.851394375,1.62939453125,9.160594374999999,3.09768453125,8.118954375000001,5.87548453125C8.096534375000001,5.93524453125,8.074704375,5.99498453125,8.053354375,6.05466453125L5.753024375,6.05466453125C4.212404375,6.05466453125,2.958984375,7.30805453125,2.958984375,8.84870453125L2.958984375,21.59969453125C2.958984375,23.14029453125,4.212374375,24.39369453125,5.753024375,24.39369453125L20.282084375,24.39369453125C21.822684375,24.39369453125,23.076084375,23.14029453125,23.076084375,21.59969453125L23.076084375,8.848674531250001C23.076084375,7.30805453125,21.822684375,6.05463453125,20.282084375,6.05463453125ZM13.008484375,2.64538453125C15.007184375,2.64538453125,16.178884375000003,4.30913453125,16.858184375,6.05463453125L9.140894375,6.05463453125C9.828984375000001,4.30895453125,11.009184375,2.64538453125,13.008484375,2.64538453125ZM22.060084375,21.59969453125C22.060084375,22.58009453125,21.262484375,23.37769453125,20.282084375,23.37769453125L5.753054375,23.37769453125C4.772634375,23.37769453125,3.9750243750000003,22.58009453125,3.9750243750000003,21.59969453125L3.9750243750000003,8.848674531250001C3.9750243750000003,7.86825453125,4.772634375,7.07065453125,5.753054375,7.07065453125L7.733144375,7.07065453125C7.486154375,7.96634453125,7.350134375,8.77278453125,7.278864375,9.300124531249999C6.907914375,9.46516453125,6.649154375,9.83668453125,6.649154375,10.26884453125C6.649154375,10.85428453125,7.123754375,11.32890453125,7.709214375,11.32890453125C8.294644375,11.32890453125,8.769274375,10.85431453125,8.769274375,10.26884453125C8.769274375,9.89995453125,8.580714375,9.57517453125,8.294854375,9.38531453125C8.372154375000001,8.83721453125,8.521654375,7.98603453125,8.792914374999999,7.07065453125L17.201184375,7.07065453125C17.466384375,7.98099453125,17.611584375,8.827654531250001,17.686384375,9.37549453125C17.391984375,9.56384453125,17.196684375,9.89342453125,17.196684375,10.26887453125C17.196684375,10.85431453125,17.671284375,11.32893453125,18.256684375,11.32893453125C18.842184375000002,11.32893453125,19.316784375,10.85433453125,19.316784375,10.26887453125C19.316784375,9.84349453125,19.066084375,9.47682453125,18.704484375,9.308014531249999C18.635884375,8.78034453125,18.503484375,7.97039453125,18.259584375,7.07065453125L20.282084375,7.07065453125C21.262484375,7.07065453125,22.060084375,7.86825453125,22.060084375,8.848674531250001L22.060084375,21.59969453125Z" fill="#6D6A71" fill-opacity="1"/><path d="M22.310084375,8.848674531250001L22.310084375,21.59969453125Q22.310084375,22.43849453125,21.715484375,23.03309453125Q21.120884375,23.62769453125,20.282084375,23.62769453125L5.753054375,23.62769453125Q4.914194375,23.62769453125,4.319604375,23.03309453125Q3.725025375,22.43849453125,3.725026375,21.59969453125L3.725026375,8.848674531250001Q3.725026375,8.009804531250001,4.319604375,7.41523453125Q4.914184375,6.82065453125,5.753054375,6.82065453125L8.061414375,6.82065453125L7.974154375,7.13710453125Q7.678634375,8.20876453125,7.526614375,9.33360453125L7.507934375,9.47183453125L7.380494375,9.52853453125Q6.899154375,9.74268453125,6.899154375,10.26884453125Q6.899154375,10.60438453125,7.136414375,10.84164453125Q7.373674375,11.07890453125,7.709214375,11.07890453125Q8.044744375,11.07890453125,8.282004375,10.84164453125Q8.519274375,10.60438453125,8.519274375,10.26884453125Q8.519274375,9.83447453125,8.156544375,9.593574531249999L8.025304375000001,9.50640453125L8.047304375,9.35040453125Q8.220484375,8.12246453125,8.553214375,6.99962453125L8.606254374999999,6.82065453125L17.388684375,6.82065453125L17.441184375,7.00072453125Q17.766984375,8.119004531249999,17.934084374999998,9.341634531250001L17.955784375,9.49997453125L17.821184375,9.58609453125Q17.446684375,9.82564453125,17.446684375,10.26887453125Q17.446684375,10.60440453125,17.683884374999998,10.84166453125Q17.921184375,11.07893453125,18.256684375,11.07893453125Q18.592284375,11.07893453125,18.829484375,10.84167453125Q19.066784375,10.60441453125,19.066784375,10.26887453125Q19.066784375,9.75304453125,18.598784375,9.53455453125L18.474284375,9.47644453125L18.456584375,9.34024453125Q18.309884375,8.21160453125,18.018284375,7.13606453125L17.932784375,6.82065453125L20.282084375,6.82065453125Q21.120984375,6.82065453125,21.715484375,7.41522453125Q22.310084375,8.00981453125,22.310084375,8.848674531250001L22.310084375,8.848674531250001ZM21.810084375,8.848674531250001Q21.810084375,8.216924531250001,21.361984375,7.76878453125Q20.913884375,7.32065453125,20.282084375,7.32065453125L18.259584375,7.32065453125L18.259584375,7.07065453125L18.500884375,7.00523453125Q18.801284375,8.11351453125,18.952384375,9.27579453125L18.704484375,9.308014531249999L18.810284375000002,9.08149453125Q19.566784375,9.43466453125,19.566784375,10.26887453125Q19.566784375,10.81152453125,19.183084375,11.19522453125Q18.799384375000002,11.57893453125,18.256684375,11.57893453125Q17.714084375,11.57893453125,17.330384375,11.19521453125Q16.946684375,10.81150453125,16.946684375,10.26887453125Q16.946684375,9.551944531250001,17.551684375,9.164894531249999L17.686384375,9.37549453125L17.438684375,9.409354531249999Q17.276584375,8.223364531249999,16.961184375000002,7.14058453125L17.201184375,7.07065453125L17.201184375,7.32065453125L8.792914374999999,7.32065453125L8.792914374999999,7.07065453125L9.032614375,7.14167453125Q8.710404375,8.22898453125,8.542404375,9.42023453125L8.294854375,9.38531453125L8.433164375,9.17706453125Q9.019274375,9.56632453125,9.019274375,10.26884453125Q9.019264374999999,10.81149453125,8.635554375,11.19520453125Q8.251844375000001,11.57890453125,7.709214375,11.57890453125Q7.166574375,11.57890453125,6.782864375,11.19519453125Q6.399154375,10.81148453125,6.399154375,10.26884453125Q6.399154375,9.41788453125,7.177244375,9.071704531249999L7.278864375,9.300124531249999L7.031124375,9.26663453125Q7.187664375,8.10836453125,7.492144375,7.00419453125L7.733144375,7.07065453125L7.733144375,7.32065453125L5.753054375,7.32065453125Q5.121294375,7.32065453125,4.673154375,7.76878453125Q4.225024375,8.21691453125,4.225024375,8.848674531250001L4.225024375,21.59969453125Q4.225024375,22.23139453125,4.673164375,22.67959453125Q5.121294375,23.12769453125,5.753054375,23.12769453125L20.282084375,23.12769453125Q20.913784375,23.12769453125,21.361984375,22.67949453125Q21.810084375,22.23139453125,21.810084375,21.59969453125L21.810084375,8.848674531250001L21.810084375,8.848674531250001ZM8.908314375,5.96295453125Q10.314534375000001,2.39538553125,13.008484375,2.39538253125Q15.702384375,2.3953835312500003,17.091184374999997,5.96396453125L17.223784375,6.30463453125L8.773634375,6.30463453125L8.908314375,5.96295453125ZM9.373484375,6.14631453125L9.140894375,6.05463453125L9.140894375,5.80463453125L16.858184375,5.80463453125L16.858184375,6.05463453125L16.625184375,6.14530453125Q15.360484375,2.89538453125,13.008484375,2.89538453125Q10.654894375,2.89538453125,9.373484375,6.14631453125ZM22.826084375,8.848674531250001Q22.826084375,7.79675453125,22.080084375,7.05069453125Q21.333984375,6.30463453125,20.282084375,6.30463453125L17.768584375,6.30463453125L17.644884375,5.96249453125Q16.133384375,1.87938653125,13.008484375,1.87939453125Q9.884424375,1.87939453125,8.353034375,5.96326453125L8.228044375,6.30466453125L5.753024375,6.30466453125Q4.701104375,6.30466453125,3.9550463750000002,7.05071453125Q3.208984375,7.79677453125,3.208984375,8.84870453125L3.208984375,21.59969453125Q3.208984375,22.65159453125,3.955037375,23.39769453125Q4.701094375,24.14369453125,5.753024375,24.14369453125L20.282084375,24.14369453125Q21.333984375,24.14369453125,22.079984375,23.39769453125Q22.826084375,22.65159453125,22.826084375,21.59969453125L22.826084375,8.848674531250001L22.826084375,8.848674531250001ZM23.326084375,8.848674531250001L23.326084375,21.59969453125Q23.326084375,22.85869453125,22.433584375,23.75119453125Q21.541084375,24.64369453125,20.282084375,24.64369453125L5.753024375,24.64369453125Q4.493984375,24.64369453125,3.601484375,23.75119453125Q2.708984375,22.85869453125,2.708984375,21.59969453125L2.708984375,8.84870453125Q2.708984375,7.58966453125,3.601494375,6.69716453125Q4.494004375,5.80466453125,5.753024375,5.80466453125L8.053354375,5.80466453125L8.053354375,6.05466453125L7.818594375,5.96870453125L7.884874375,5.78771453125Q9.537914375,1.37939453125,13.008484375,1.37939453125Q16.481484375,1.37939453125,18.115084375000002,5.79248453125L18.179184375,5.96963453125L17.944084375,6.05463453125L17.944084375,5.80463453125L20.282084375,5.80463453125Q21.541084375,5.80463453125,22.433584375,6.69714453125Q23.326084375,7.58965453125,23.326084375,8.84868453125L23.326084375,8.848674531250001Z" fill="#6D6A71" fill-opacity="1"/></g></g></svg>