<svg xmlns="http://www.w3.org/2000/svg" xmlns:xlink="http://www.w3.org/1999/xlink" fill="none" version="1.1" width="16" height="16" viewBox="0 0 16 16"><defs><clipPath id="master_svg0_26_4207"><rect x="0" y="0" width="16" height="16" rx="0"/></clipPath></defs><g clip-path="url(#master_svg0_26_4207)"><g><path d="M8.38134765625,7.85313L8.38134765625,3.828125C8.38134765625,3.6125,8.20634765625,3.4375,7.99072265625,3.4375C7.77509765625,3.4375,7.60009765625,3.6125,7.60009765625,3.828125L7.60009765625,8.0625C7.60322265625,8.08594,7.60791015625,8.10781,7.61416015625,8.12969L7.61416015625,8.13125C7.61572265625,8.13594,7.61728515625,8.13906,7.61884765625,8.14375C7.61884765625,8.14531,7.62041015625,8.14687,7.62041015625,8.15C7.62197265625,8.15313,7.62353515625,8.15625,7.62353515625,8.159379999999999C7.62509765625,8.1625,7.62509765625,8.16563,7.62666015625,8.16719C7.62822265625,8.16875,7.62822265625,8.17188,7.62978515625,8.17344C7.63134765625,8.17656,7.63291015625,8.18125,7.63447265625,8.18438C7.63447265625,8.18594,7.63603515625,8.18594,7.63603515625,8.1875C7.64853515625,8.21406,7.66416015625,8.23906,7.68291015625,8.26094L7.68447265625,8.2625C7.68603515625,8.26562,7.68916015625,8.26719,7.69072265625,8.27031C7.69228515625,8.27187,7.69384765625,8.275,7.69697265625,8.27656L7.70322265625,8.28281L7.71103465625,8.29063L7.71259765625,8.29219L10.19072765625,10.72344C10.26728765625,10.79844,10.36571765625,10.83594,10.46415765625,10.83594C10.56572765625,10.83594,10.66728765625,10.79688,10.74228765625,10.71875C10.89384765625,10.56406,10.89072765625,10.31719,10.73759765625,10.16563L8.38134765625,7.85313Z" fill="#23FFAA" fill-opacity="1"/></g><g><path d="M14.474975,5.27032220703125C14.121875,4.43438220703125,13.615675,3.68282220703125,12.970275,3.03907220703125C12.324975,2.39376220703125,11.574975,1.88751220703125,10.739065,1.53438720703125C9.871875,1.16720020703125,8.953125,0.98126220703125,8.004685,0.98126220703125C7.056255,0.98126220703125,6.137505,1.16720020703125,5.271875,1.53282420703125C4.435935000000001,1.8859502070312502,3.684375,2.39220220703125,3.040625,3.03751220703125C2.395315,3.68282220703125,1.8890630000000002,4.432822207031251,1.535937,5.26876220703125C1.170313,6.13439220703125,0.984375,7.05470220703125,0.984375,8.00157220703125C0.984375,8.94845220703125,1.170313,9.86876220703125,1.535937,10.73439220703125C1.8890630000000002,11.57036220703125,2.395315,12.32186220703125,3.040625,12.96566220703125C3.685935,13.61096220703125,4.435935000000001,14.11716220703125,5.271875,14.47036220703125C6.137505,14.83596220703125,7.057815,15.02186220703125,8.004685,15.02186220703125C8.951565,15.02186220703125,9.871875,14.83596220703125,10.737505,14.47036220703125C11.573475,14.11716220703125,12.324975,13.61096220703125,12.968775,12.96566220703125C13.612475,12.32036220703125,14.120275,11.57036220703125,14.473475,10.73439220703125C14.839075,9.86876220703125,15.024975,8.94845220703125,15.024975,8.00157220703125C15.024975,7.05470220703125,14.842175,6.13595220703125,14.474975,5.27032220703125ZM8.004685,14.24376220703125C4.564064999999999,14.24376220703125,1.7640630000000002,11.44376220703125,1.7640630000000002,8.00313220703125C1.7640630000000002,4.56251220703125,4.564064999999999,1.76251220703125,8.004685,1.76251220703125C11.445275,1.76251220703125,14.245275,4.56251220703125,14.245275,8.00313220703125C14.245275,11.44376220703125,11.446875,14.24376220703125,8.004685,14.24376220703125Z" fill="#23FFAA" fill-opacity="1"/></g></g></svg>