<svg xmlns="http://www.w3.org/2000/svg" xmlns:xlink="http://www.w3.org/1999/xlink" fill="none" version="1.1" width="30" height="30" viewBox="0 0 30 30"><g style="mix-blend-mode:passthrough"><g style="mix-blend-mode:passthrough"><ellipse cx="15" cy="15" rx="15" ry="15" fill="#FFFFFF" fill-opacity="1"/></g><g style="mix-blend-mode:passthrough"><g><path d="M22.600000918884277,12.255659999999999C22.103370918884277,12.255659999999999,21.700000918884278,11.85229,21.700000918884278,11.35566L21.700000918884278,9.16096C21.700000918884278,8.68602,21.313970918884277,8.3,20.839030918884276,8.3L18.620480918884276,8.3C18.123853918884276,8.3,17.720480918884277,7.89663,17.720480918884277,7.4C17.720480918884277,6.903373,18.123853918884276,6.5,18.620480918884276,6.5L20.839030918884276,6.5C22.305060918884276,6.5,23.500000918884275,7.69277,23.500000918884275,9.16096L23.500000918884275,11.35566C23.500000918884275,11.85229,23.096620918884277,12.255659999999999,22.600000918884277,12.255659999999999Z" fill="#131217" fill-opacity="1"/></g><g><path d="M14.51301168786621,16.404342237968443C14.283131687866211,16.404342237968443,14.05325268786621,16.315422237968445,13.87758968786621,16.139762237968444C13.526264387866211,15.788432237968445,13.526264387866211,15.218072237968444,13.87758968786621,14.866742237968445L21.45276568786621,7.2915662379684445C21.80409568786621,6.940240937968444,22.37445568786621,6.940240937968444,22.72578568786621,7.2915662379684445C23.07710568786621,7.642891237968445,23.07710568786621,8.213252237968444,22.72578568786621,8.564582237968445L15.148435687866211,16.141932237968447C14.972765687866211,16.317592237968444,14.742895687866211,16.404342237968443,14.51301168786621,16.404342237968443Z" fill="#131217" fill-opacity="1"/></g><g><path d="M14.5,24.5C9.538070000000001,24.5,5.5,20.4619,5.5,15.5C5.5,10.538070000000001,9.538070000000001,6.5,14.5,6.5C14.99663,6.5,15.4,6.903373,15.4,7.4C15.4,7.89663,14.99663,8.3,14.5,8.3C10.529160000000001,8.3,7.3,11.529160000000001,7.3,15.5C7.3,19.4708,10.529160000000001,22.7,14.5,22.7C18.4708,22.7,21.7,19.4708,21.7,15.5C21.7,15.00337,22.1034,14.6,22.6,14.6C23.0966,14.6,23.5,15.00337,23.5,15.5C23.5,20.4619,19.464100000000002,24.5,14.5,24.5Z" fill="#131217" fill-opacity="1"/></g></g></g></svg>