<svg xmlns="http://www.w3.org/2000/svg" xmlns:xlink="http://www.w3.org/1999/xlink" fill="none" version="1.1" width="27" height="23.453874588012695" viewBox="0 0 27 23.453874588012695"><g style="mix-blend-mode:passthrough"><path d="M7.875,1C4.07804,1,1,4.07806,1,7.875C1,14.75,9.125,21,13.5,22.4539C17.875,21,26,14.75,26,7.875C26,4.07806,22.9219,1,19.125,1C16.799799999999998,1,14.7442,2.1543099999999997,13.5,3.92113C12.2558,2.1543099999999997,10.20019,1,7.875,1Z" fill="#48454C" fill-opacity="1"/><path d="M12.6824,4.4968900000000005Q11.8691,3.34191,10.62416,2.6813599999999997Q9.34006,2,7.875,2Q5.4415,2,3.72075,3.72075Q2,5.44151,2,7.875Q2,10.06231,3.2226,12.3827Q4.3295200000000005,14.4836,6.31995,16.4937Q8.10052,18.2919,10.24735,19.6917Q12.2101,20.9714,13.8154,21.5049L13.5,22.4539L13.1846,21.5049Q14.7899,20.9714,16.7526,19.6917Q18.8995,18.2919,20.68,16.4937Q22.6705,14.4836,23.7774,12.3827Q25,10.0623,25,7.875Q25,5.44151,23.2792,3.72076Q21.5585,2,19.125,2Q17.6599,2,16.375799999999998,2.6813599999999997Q15.1309,3.34191,14.3176,4.4968900000000005Q14.2609,4.57742,14.1896,4.64534Q14.1182,4.71325,14.035,4.76595Q13.9518,4.81865,13.8599,4.8541Q13.7681,4.88955,13.671,4.90639Q13.574,4.92324,13.4755,4.9208300000000005Q13.377,4.91841,13.2809,4.89684Q13.1849,4.87526,13.0948,4.83536Q13.0048,4.795450000000001,12.9242,4.73874Q12.7823,4.6388,12.6824,4.4968900000000005ZM14.3176,3.34536L13.5,3.92113L12.6824,3.34536Q13.7711,1.7993730000000001,15.4384,0.9146591Q17.1622,0,19.125,0.0000010000000000287557Q22.3869,0,24.6935,2.30654Q27,4.61308,27,7.875Q27,10.55696,25.5468,13.315Q24.3011,15.6793,22.1012,17.901Q20.1705,19.8507,17.845,21.367Q15.6659,22.7879,13.8154,23.4028Q13.6618,23.4539,13.5,23.4539Q13.3382,23.4539,13.1846,23.4028Q11.3341,22.7879,9.15499,21.367Q6.82947,19.8507,4.8988,17.901Q2.69889,15.6793,1.453179,13.315Q0,10.55696,0,7.875Q0,4.61308,2.30653,2.30654Q4.6130700000000004,0,7.875,0Q9.83781,0,11.5616,0.9146592Q13.2289,1.799372,14.3176,3.34536Z" fill="#48454C" fill-opacity="1"/></g></svg>