<svg xmlns="http://www.w3.org/2000/svg" xmlns:xlink="http://www.w3.org/1999/xlink" fill="none" version="1.1" width="12.222222328186035" height="10" viewBox="0 0 12.222222328186035 10"><g style="mix-blend-mode:passthrough"><path d="M6.29116,1.82181C6.58992,1.47202,6.90679,1.15635,7.24176,0.874815C7.53147,0.644466,7.85965,0.435445,8.22631,0.247753C8.59297,0.0600614,8.97547,-0.0209874,9.37382,0.00460698C9.93512,0.0472642,10.4036,0.173103,10.7793,0.382124C11.1551,0.591144,11.4538,0.855619,11.6756,1.17555C11.8974,1.49548,12.0491,1.85806,12.1306,2.26331C12.212,2.66855,12.2392,3.08446,12.212,3.51103C12.1849,3.93761,12.1057,4.34498,11.9744,4.73316C11.8431,5.12134,11.6802,5.48393,11.4855,5.82092C11.2909,6.15792,11.0758,6.46931,10.8405,6.75512C10.6051,7.04092,10.3697,7.299,10.1343,7.52935C9.77216,7.87914,9.39419,8.20546,9.00037,8.50833C8.60655,8.8112,8.23083,9.07141,7.87323,9.28896C7.51562,9.50651,7.1897,9.67927,6.89547,9.80724C6.60124,9.93521,6.37264,9.9992,6.20968,9.9992C6.02861,10.0077,5.79775,9.94801,5.5171,9.82004C5.23645,9.69207,4.92863,9.51931,4.59366,9.30175C4.25869,9.0842,3.90561,8.82613,3.53442,8.52752C3.16323,8.22892,2.79657,7.91326,2.43444,7.58053C2.19905,7.36725,1.94556,7.11984,1.67396,6.8383C1.40236,6.55676,1.1466,6.2475,0.906691,5.9105C0.666778,5.57351,0.460815,5.20879,0.288801,4.81634C0.116788,4.4239,0.021728,4.00586,0.00362133,3.56222C-0.0144853,3.11859,0.035308,2.70268,0.153001,2.3145C0.270695,1.92632,0.447235,1.57866,0.682621,1.27153C0.918008,0.964395,1.20771,0.706319,1.55174,0.497298C1.89577,0.288278,2.28506,0.14111,2.71962,0.0557957C2.9369,0.0131384,3.15418,0.00673991,3.37146,0.0366C3.58874,0.0664601,3.80149,0.117649,4.00972,0.190166C4.21795,0.262683,4.41712,0.354397,4.60724,0.465305C4.79736,0.576214,4.97843,0.691389,5.15044,0.810829C5.54879,1.09237,5.92903,1.42936,6.29116,1.82181Z" fill="#23FFAA" fill-opacity="1"/></g></svg>