<svg xmlns="http://www.w3.org/2000/svg" xmlns:xlink="http://www.w3.org/1999/xlink" fill="none" version="1.1" width="19" height="19" viewBox="0 0 19 19"><defs><linearGradient x1="0.1434108465909958" y1="-0.09090909361839294" x2="0.8524884581565857" y2="1.3366268873214722" id="master_svg0_8_4175"><stop offset="0%" stop-color="#A678FF" stop-opacity="1"/><stop offset="44.999995827674866%" stop-color="#915DFF" stop-opacity="1"/><stop offset="100.00002384185791%" stop-color="#7C3FFD" stop-opacity="1"/></linearGradient></defs><g><path d="M19,9.5Q19,9.73321,18.9886,9.96614Q18.9771,10.1991,18.9543,10.4312Q18.9314,10.6633,18.8972,10.8939Q18.863,11.1246,18.8175,11.3534Q18.772,11.5821,18.7153,11.8083Q18.6586,12.0345,18.5909,12.2577Q18.5232,12.4809,18.4447,12.7005Q18.3661,12.92,18.2769,13.1355Q18.1876,13.3509,18.0879,13.5618Q17.9882,13.7726,17.8782,13.9783Q17.7683,14.1839,17.6484,14.384Q17.5285,14.584,17.399,14.7779Q17.2694,14.9718,17.1305,15.1591Q16.9915,15.3465,16.8436,15.5267Q16.6956,15.707,16.539,15.8798Q16.3824,16.0526,16.2175,16.2175Q16.0526,16.3824,15.8798,16.539Q15.707,16.6956,15.5267,16.8436Q15.3465,16.9915,15.1591,17.1305Q14.9718,17.2694,14.7779,17.399Q14.584,17.5285,14.384,17.6484Q14.1839,17.7683,13.9783,17.8783Q13.7726,17.9882,13.5618,18.0879Q13.3509,18.1876,13.1355,18.2769Q12.92,18.3661,12.7005,18.4447Q12.4809,18.5232,12.2577,18.5909Q12.0345,18.6586,11.8083,18.7153Q11.5821,18.772,11.3534,18.8175Q11.1246,18.863,10.8939,18.8972Q10.6633,18.9314,10.4312,18.9543Q10.1991,18.9771,9.96614,18.9886Q9.73321,19,9.5,19Q9.26679,19,9.03386,18.9886Q8.80093,18.9771,8.56884,18.9543Q8.33675,18.9314,8.10606,18.8972Q7.87537,18.863,7.64664,18.8175Q7.41791,18.772,7.19169,18.7153Q6.96547,18.6586,6.7423,18.5909Q6.51913,18.5232,6.29955,18.4447Q6.07997,18.3661,5.86451,18.2769Q5.64905,18.1876,5.43823,18.0879Q5.22741,17.9882,5.02173,17.8782Q4.81606,17.7683,4.61602,17.6484Q4.41599,17.5285,4.22208,17.399Q4.02817,17.2694,3.84086,17.1305Q3.65354,16.9915,3.47326,16.8436Q3.29299,16.6956,3.12019,16.539Q2.94739,16.3824,2.78249,16.2175Q2.61758,16.0526,2.46096,15.8798Q2.30435,15.707,2.1564,15.5267Q2.00845,15.3465,1.86953,15.1591Q1.7306,14.9718,1.60104,14.7779Q1.47147,14.584,1.35158,14.384Q1.23168,14.1839,1.12175,13.9783Q1.01181,13.7726,0.912102,13.5618Q0.812391,13.3509,0.723144,13.1355Q0.633898,12.92,0.555331,12.7005Q0.476765,12.4809,0.409067,12.2577Q0.341369,12.0345,0.284703,11.8083Q0.228037,11.5821,0.18254,11.3534Q0.137042,11.1246,0.102823,10.8939Q0.0686039,10.6633,0.0457451,10.4312Q0.0228863,10.1991,0.0114432,9.96614Q0,9.73321,0,9.5Q0,9.26679,0.0114432,9.03386Q0.0228863,8.80093,0.0457451,8.56884Q0.0686039,8.33675,0.102823,8.10606Q0.137042,7.87537,0.18254,7.64664Q0.228037,7.41791,0.284703,7.19169Q0.341369,6.96547,0.409067,6.7423Q0.476765,6.51913,0.555331,6.29955Q0.633898,6.07997,0.723144,5.86451Q0.812391,5.64905,0.912102,5.43823Q1.01181,5.22741,1.12175,5.02173Q1.23168,4.81606,1.35158,4.61602Q1.47147,4.41599,1.60104,4.22208Q1.7306,4.02817,1.86953,3.84086Q2.00845,3.65354,2.1564,3.47326Q2.30435,3.29299,2.46096,3.12019Q2.61758,2.94739,2.78249,2.78249Q2.94739,2.61758,3.12019,2.46096Q3.29299,2.30435,3.47326,2.1564Q3.65354,2.00845,3.84086,1.86953Q4.02817,1.7306,4.22208,1.60104Q4.41599,1.47147,4.61602,1.35158Q4.81606,1.23168,5.02173,1.12175Q5.22741,1.01181,5.43823,0.912102Q5.64905,0.812391,5.86451,0.723144Q6.07997,0.633898,6.29955,0.555331Q6.51913,0.476765,6.7423,0.409067Q6.96547,0.341369,7.19169,0.284703Q7.41791,0.228037,7.64664,0.18254Q7.87537,0.137042,8.10606,0.102823Q8.33675,0.0686039,8.56884,0.0457451Q8.80093,0.0228863,9.03386,0.0114432Q9.26679,0,9.5,0Q9.73321,0,9.96614,0.0114432Q10.1991,0.0228863,10.4312,0.0457451Q10.6633,0.0686039,10.8939,0.102823Q11.1246,0.137042,11.3534,0.18254Q11.5821,0.228037,11.8083,0.284703Q12.0345,0.341369,12.2577,0.409067Q12.4809,0.476765,12.7005,0.555331Q12.92,0.633898,13.1355,0.723144Q13.3509,0.812391,13.5618,0.912102Q13.7726,1.01181,13.9783,1.12175Q14.1839,1.23168,14.384,1.35158Q14.584,1.47147,14.7779,1.60104Q14.9718,1.7306,15.1591,1.86953Q15.3465,2.00845,15.5267,2.1564Q15.707,2.30435,15.8798,2.46096Q16.0526,2.61758,16.2175,2.78249Q16.3824,2.94739,16.539,3.12019Q16.6956,3.29299,16.8436,3.47326Q16.9915,3.65354,17.1305,3.84086Q17.2694,4.02817,17.399,4.22208Q17.5285,4.41599,17.6484,4.61602Q17.7683,4.81606,17.8783,5.02173Q17.9882,5.22741,18.0879,5.43823Q18.1876,5.64905,18.2769,5.86451Q18.3661,6.07997,18.4447,6.29955Q18.5232,6.51913,18.5909,6.7423Q18.6586,6.96547,18.7153,7.19169Q18.772,7.41791,18.8175,7.64664Q18.863,7.87537,18.8972,8.10606Q18.9314,8.33675,18.9543,8.56884Q18.9771,8.80093,18.9886,9.03386Q19,9.26679,19,9.5Z" fill="url(#master_svg0_8_4175)" fill-opacity="1"/></g></svg>