<svg xmlns="http://www.w3.org/2000/svg" xmlns:xlink="http://www.w3.org/1999/xlink" fill="none" version="1.1" width="70" height="65.64202117919922" viewBox="0 0 70 65.64202117919922"><g style="mix-blend-mode:passthrough"><path d="M35,0C15.6698,0,0,14.6943,0,32.821C0,50.9478,15.6698,65.642,35,65.642C54.3302,65.642,70,50.9478,70,32.821C70,14.6943,54.3302,0,35,0ZM42.4338,35.3167C42.4338,35.3167,31.5402,43.7967,31.5402,43.7967C31.1417,44.0124,30.6897,44.126,30.2296,44.126C29.7695,44.1261,29.3174,44.0125,28.919,43.7968C28.5205,43.5811,28.1895,43.2708,27.9594,42.8972C27.7293,42.5236,27.6081,42.0997,27.608,41.6682C27.608,41.6682,27.608,24.7154,27.608,24.7154C27.6081,24.2839,27.7293,23.86,27.9594,23.4864C28.1895,23.1128,28.5205,22.8025,28.919,22.5868C29.3174,22.3711,29.7695,22.2575,30.2296,22.2576C30.6897,22.2576,31.1417,22.3712,31.5402,22.5869C31.5402,22.5869,42.4338,31.0633,42.4338,31.0633C42.8312,31.2794,43.1611,31.5896,43.3904,31.9628C43.6197,32.3361,43.7404,32.7593,43.7404,33.19C43.7404,33.6208,43.6197,34.044,43.3904,34.4172C43.1611,34.7905,42.8312,35.1006,42.4338,35.3167Z" fill="#FFFFFF" fill-opacity="1"/></g></svg>