<svg xmlns="http://www.w3.org/2000/svg" xmlns:xlink="http://www.w3.org/1999/xlink" fill="none" version="1.1" width="28.52696418762207" height="18.56796646118164" viewBox="0 0 28.52696418762207 18.56796646118164"><g><path d="M4.11525,18.318C2.409,18.318,1.1902460000000001,17.8305,0.45899599999999996,16.8555C-0.272254,15.393,0.946496,12.9555,3.62775,10.2742L4.11525,10.2742C4.359,10.518,4.359,10.518,4.11525,10.7617C1.67775,13.1992,0.45899599999999996,15.1492,1.1902460000000001,16.368C1.67775,17.343,3.62775,17.8305,6.55275,17.343C9.47775,16.8555,13.134,15.393,16.5465,13.443C20.2027,11.493,23.1277,9.29922,25.3215,7.10547C27.2715,5.15547,28.0027,3.20547,27.5152,2.23047C26.784,1.011719,24.1027,0.767969,20.2027,1.74297C19.959,1.74297,19.7152,1.74297,19.7152,1.49922C19.7152,1.25547,19.7152,1.011719,19.959,1.011719C24.3465,-0.20703100000000002,27.2715,0.036719,28.0027,1.74297C28.734,2.96172,28.0027,5.15547,25.809,7.34922C23.6152,9.54297,20.4465,11.9805,17.034,13.9305C13.3777,15.8805,9.7215,17.343,6.7965,17.8305C5.8215,18.0742,4.8465,18.318,4.11525,18.318Z" fill="#23FFAA" fill-opacity="1"/><path d="M6.85713,18.073Q4.87729,18.568,4.11525,18.568Q1.43087,18.568,0.25899641,17.0055L0.24547072,16.9874L0.2353894,16.9673Q-0.364019,15.7685,0.538875,13.9125Q1.39432,12.1541,3.45097,10.09744L3.52419,10.02422L4.2188,10.02422L4.29202,10.09744Q4.54806,10.3535,4.54806,10.518Q4.54806,10.6825,4.29202,10.9385Q0.49958,14.7309,1.40462,16.2393L1.40956,16.2476L1.41385,16.2562Q1.73834,16.9051,3.00646,17.1588Q4.42957,17.4434,6.51165,17.0964Q10.9411,16.3581,16.4225,13.2259L16.4256,13.2241L16.4289,13.2224Q21.6192,10.4542,25.1447,6.92869Q26.5275,5.54594,27.1026,4.203860000000001Q27.6195,2.99794,27.2916,2.34227L27.5152,2.23047L27.3009,2.35909Q26.8117,1.54384,25.029,1.4134Q23.1127,1.27318,20.2634,1.9855L20.2335,1.99297L20.2027,1.99297Q19.4652,1.99297,19.4652,1.49922Q19.4652,1.2149,19.5085,1.085005Q19.6163,0.761719,19.959,0.761719L19.959,1.011719L19.8921,0.770839Q23.2376,-0.15846300000000002,25.3741,0.03145100000000001Q27.627,0.2317135,28.2325,1.64449L28.0027,1.74297L28.2171,1.61434Q28.8417,2.65529,28.2368,4.26825Q27.6328,5.87894,25.9858,7.52599Q22.3059,11.2059,17.158,14.1475L17.1549,14.1493L17.1516,14.1511Q11.1325,17.3612,6.83759,18.0771L6.7965,17.8305L6.85713,18.073ZM6.73586,17.5879L6.74555,17.5855L6.75539,17.5839Q10.9695,16.8815,16.9163,13.7099L17.034,13.9305L16.91,13.7134Q21.9997,10.805,25.6322,7.17244Q27.2027,5.60197,27.7687,4.09269Q28.2888,2.70564,27.7884,1.87159L27.7796,1.85704L27.773,1.84145Q27.2852,0.7032959999999999,25.3298,0.529487Q23.2838,0.3476191,20.0259,1.2526L19.9931,1.26172L19.959,1.26172Q19.9767,1.26172,19.9829,1.24312Q19.9652,1.29604,19.9652,1.49922Q19.9652,1.48153,19.9466,1.47533Q19.9996,1.49297,20.2027,1.49297L20.2027,1.74297L20.1421,1.50043Q23.0692,0.768659,25.0655,0.914729Q27.107,1.064103,27.7296,2.10184L27.7346,2.11008L27.7389,2.11866Q28.1704,2.98175,27.5622,4.40082Q26.9491,5.83141,25.4983,7.28224Q21.9202,10.8604,16.6641,13.6636L16.5465,13.443L16.6705,13.66Q11.1115,16.8366,6.59385,17.5896Q4.42138,17.9516,2.9084,17.649Q1.40049,17.3475,0.966639,16.4798L1.1902460000000001,16.368L0.975873,16.4966Q-0.13002000000000002,14.6534,3.93847,10.5849Q4.0353200000000005,10.4881,4.05714,10.4608Q4.0480599999999995,10.4722,4.0480599999999995,10.518Q4.0480599999999995,10.5638,4.05714,10.5751Q4.0353200000000005,10.5478,3.93847,10.451L4.11525,10.2742L4.11525,10.5242L3.62775,10.5242L3.62775,10.2742L3.80452,10.451Q1.80722,12.4483,0.988492,14.1312Q0.1934828,15.7654,0.6826030000000001,16.7437L0.45899599999999996,16.8555L0.658996,16.7055Q1.68087,18.068,4.11525,18.068Q4.81574,18.068,6.73586,17.5879Z" fill="#23FFAA" fill-opacity="1"/></g></svg>