<svg xmlns="http://www.w3.org/2000/svg" xmlns:xlink="http://www.w3.org/1999/xlink" fill="none" version="1.1" width="20.625" height="16.904296875" viewBox="0 0 20.625 16.904296875"><g><path d="M17.9883,16.9043L12.7148,16.9043C12.2285,16.9043,11.8359,16.5117,11.8359,16.0254C11.8359,15.5391,12.2285,15.1465,12.7148,15.1465L17.9883,15.1465C18.4717,15.1465,18.8672,14.751,18.8672,14.2676L18.8672,2.63672C18.8672,2.15332,18.4717,1.75781,17.9883,1.75781L2.63672,1.75781C2.15332,1.75781,1.75781,2.15332,1.75781,2.63672L1.75781,14.2676C1.75781,14.751,2.15332,15.1465,2.63672,15.1465L7.76367,15.1465C8.25,15.1465,8.64258,15.5391,8.64258,16.0254C8.64258,16.5117,8.25,16.9043,7.76367,16.9043L2.63672,16.9043C1.18359,16.9043,0,15.7207,0,14.2676L0,2.63672C0,1.18359,1.18359,0,2.63672,0L17.9883,0C19.4414,0,20.625,1.18359,20.625,2.63672L20.625,14.2676C20.625,15.7236,19.4414,16.9043,17.9883,16.9043Z" fill="#6D6A71" fill-opacity="1"/></g></svg>