<svg xmlns="http://www.w3.org/2000/svg" xmlns:xlink="http://www.w3.org/1999/xlink" fill="none" version="1.1" width="21.666330337524414" height="18.668481826782227" viewBox="0 0 21.666330337524414 18.668481826782227"><g><path d="M5.73242,5.63436L9.79574,0.501796C10.3254,-0.167265,11.3406,-0.167265,11.8703,0.501796L15.9336,5.63436L19.8223,3.96792C20.2754,3.77379,20.7989,3.84769,21.1805,4.15966C21.5622,4.47163,21.7388,4.96994,21.6387,5.45263L19.3678,16.3943C19.093,17.7188,17.9258,18.6685,16.5728,18.6685L5.09326,18.6685C3.74036,18.6686,2.57323,17.719,2.29826,16.3943L0.0275905,5.45263C-0.072488,4.96993,0.104096,4.47163,0.485781,4.15966C0.867465,3.84769,1.39094,3.77379,1.84407,3.96792L5.73269,5.63436L5.73242,5.63436ZM10.833,1.80965L6.86315,6.82413C6.49239,7.29245,5.85382,7.45426,5.30478,7.219L1.73628,5.68961L3.8894,16.0639C4.00781,16.6344,4.5104,17.0435,5.09299,17.0435L16.5731,17.0435C17.1557,17.0434,17.6583,16.6344,17.7767,16.0639L19.9298,5.68961L16.3613,7.219C15.8122,7.45426,15.1737,7.29245,14.8029,6.82413L10.833,1.80965Z" fill="#6D6A71" fill-opacity="1"/></g></svg>