<svg xmlns="http://www.w3.org/2000/svg" xmlns:xlink="http://www.w3.org/1999/xlink" fill="none" version="1.1" width="25.46209144592285" height="22.146692276000977" viewBox="0 0 25.46209144592285 22.146692276000977"><g><path d="M7.43436,1.84545C8.91978,1.84449,10.3409,2.43132,11.3671,3.46945L12.7416,4.82279L14.1098,3.46945C16.2833,1.27451,19.9222,1.30833,22.0516,3.54327C24.1334,5.87741,24.0313,9.36069,21.8162,11.5772L13.2507,20.0724C12.9791,20.3766,12.4914,20.3766,12.2198,20.0724L3.66072,11.5772C1.44559,9.36069,1.3435,5.87741,3.42527,3.54327C4.45823,2.46165,5.91154,1.84619,7.43436,1.84545ZM18.0362,0C16.0393,0.00373847,14.1291,0.789376,12.7416,2.17764C9.80533,-0.766722,4.91213,-0.718915,2.038,2.28221C-0.812912,5.21033,-0.622003,9.99006,2.29254,12.869L10.8325,21.3642C11.8564,22.4075,13.576,22.4075,14.5998,21.3642L23.178,12.869C26.0735,9.99006,26.2771,5.21033,23.4389,2.28221C22.045,0.827834,20.0872,0.000801487,18.0362,0Z" fill="#FFFFFF" fill-opacity="1"/></g></svg>