<svg xmlns="http://www.w3.org/2000/svg" xmlns:xlink="http://www.w3.org/1999/xlink" fill="none" version="1.1" width="16.276033401489258" height="3.2551956176757812" viewBox="0 0 16.276033401489258 3.2551956176757812"><g style="mix-blend-mode:passthrough"><path d="M1.6276,0C0.72875,0,0,0.72877,0,1.6276C0,2.52643,0.728769,3.2552,1.6276,3.2552C2.52643,3.2552,3.25521,2.52643,3.25521,1.6276C3.25521,0.72875,2.52644,0,1.6276,0ZM8.13803,0C7.23918,0,6.51041,0.72877,6.51041,1.6276C6.51041,2.52643,7.23918,3.2552,8.13803,3.2552C9.03685,3.2552,9.76562,2.52643,9.76562,1.6276C9.76562,0.72875,9.03685,0,8.13803,0ZM14.6484,0C13.7496,0,13.0208,0.72875,13.0208,1.6276C13.0208,2.52643,13.7496,3.2552,14.6484,3.2552C15.5473,3.2552,16.276,2.52643,16.276,1.6276C16.276,0.72875,15.5473,0,14.6484,0Z" fill="#757378" fill-opacity="1"/></g></svg>