<svg xmlns="http://www.w3.org/2000/svg" xmlns:xlink="http://www.w3.org/1999/xlink" fill="none" version="1.1" width="16.666427612304688" height="15.000783920288086" viewBox="0 0 16.666427612304688 15.000783920288086"><g><path d="M11.4147,0.0538298C12.8138,-0.162837,14.1276,0.277996,15.1909,1.31425C16.2713,2.36758,16.7893,3.7555,16.6418,5.21133C16.4959,6.64966,15.7326,8.07008,14.448,9.32216C14.0897,9.67175,13.1263,10.6155,11.7438,11.9713C11.1222,12.5813,10.4605,13.2301,9.79384,13.8851L9.14551,14.5209L8.88801,14.7738C8.57989,15.0764,8.08614,15.0764,7.77801,14.7738L5.53968,12.5738L5.06676,12.1105Q3.6419,10.7166,2.21801,9.32216C0.933428,8.07008,0.170511,6.65008,0.0246777,5.21133C-0.122822,3.7555,0.394678,2.36758,1.47551,1.31425C2.53884,0.277997,3.85259,-0.16242,5.25176,0.05383C6.2901,0.214247,7.34343,0.73133,8.33343,1.55675C9.32385,0.731747,10.3768,0.214247,11.4151,0.05383L11.4147,0.0538298Z" fill="#EA2700" fill-opacity="1"/></g></svg>