<svg xmlns="http://www.w3.org/2000/svg" xmlns:xlink="http://www.w3.org/1999/xlink" fill="none" version="1.1" width="24" height="24" viewBox="0 0 24 24"><defs><clipPath id="master_svg0_721_22665"><rect x="0" y="0" width="24" height="24" rx="0"/></clipPath></defs><g style="mix-blend-mode:passthrough" clip-path="url(#master_svg0_721_22665)"><g style="mix-blend-mode:passthrough"><path d="M15.95711,19.4571C16.347630000000002,19.0666,16.347630000000002,18.4334,15.95711,18.0429C15.95711,18.0429,10.16421,12.25,10.16421,12.25C10.16421,12.25,15.95711,6.45711,15.95711,6.45711C16.347630000000002,6.06658,16.347630000000002,5.433418,15.95711,5.042894C15.56658,4.6523688,14.93342,4.6523688,14.54289,5.042894C14.54289,5.042894,8.042893,11.54289,8.042893,11.54289C7.6523689,11.93342,7.6523689,12.56658,8.042893,12.95711C8.042893,12.95711,14.54289,19.4571,14.54289,19.4571C14.93342,19.8476,15.56658,19.8476,15.95711,19.4571Z" fill-rule="evenodd" fill="#FFFFFF" fill-opacity="1"/></g></g></svg>