<svg xmlns="http://www.w3.org/2000/svg" xmlns:xlink="http://www.w3.org/1999/xlink" fill="none" version="1.1" width="19.855520248413086" height="19.858640670776367" viewBox="0 0 19.855520248413086 19.858640670776367"><g><path d="M14.7767,13.6183C14.8183,13.6475,14.8592,13.68,14.8958,13.7183L19.6158,18.4375C19.9333,18.755,19.9383,19.2875,19.6133,19.6125C19.2901,19.9394,18.7626,19.9409,18.4375,19.6158L13.7175,14.8958C13.681,14.8593,13.6481,14.8194,13.6192,14.7767C12.1302,16.0015,10.2613,16.6698,8.33333,16.6667C3.73083,16.6667,0,12.9358,0,8.33333C0,3.73083,3.73083,0,8.33333,0C12.9358,0,16.6667,3.73083,16.6667,8.33333C16.6667,10.3392,15.9583,12.18,14.7767,13.6183ZM8.33333,15C12.0161,15.0013,15.0023,12.0161,15.0023,8.33333C15.0023,4.65054,12.0161,1.6654,8.33333,1.66667C4.65233,1.66794,1.66897,4.65233,1.66897,8.33333C1.66897,12.0143,4.65233,14.9987,8.33333,15Z" fill="#6D6A71" fill-opacity="1"/></g></svg>